<svg xmlns="http://www.w3.org/2000/svg" width="24" height="24" viewBox="0 0 24 24"><defs><style>.a{fill:#333;}</style></defs><g transform="translate(-58.001 -3)"><g transform="translate(58.001 3)"><path class="a" d="M91.325,99.7h-5.7l-1.5-1.362H81.569a.355.355,0,0,0-.355.355V107.4a.355.355,0,0,0,.355.355h.27l1.415-7.282h8.426v-.422A.355.355,0,0,0,91.325,99.7Z" transform="translate(-74.717 -90.469)"/><path class="a" d="M12,0A12,12,0,1,0,24,12,12,12,0,0,0,12,0Zm6.18,17.018a1.6,1.6,0,0,1-1.547,1.513l-.024,0H6.853a1.6,1.6,0,0,1-1.6-1.6V8.221a1.6,1.6,0,0,1,1.6-1.6H9.891l1.5,1.362h5.217a1.6,1.6,0,0,1,1.6,1.6v.422H19.64Z" transform="translate(-0.001)"/></g></g></svg>