<svg xmlns="http://www.w3.org/2000/svg" width="92.435" height="102.001" viewBox="0 0 92.435 102.001"><defs><style>.a{fill:#fff;}.b{fill:#fee0e0;}.c{fill:rgba(245,46,46,0.15);}.d{fill:#f52e2e;}</style></defs><g transform="translate(0)"><path class="a" d="M53.553,15.563H43.99V6Z" transform="translate(21.337 3.563)"/><path class="b" d="M62.375,7.375v76.5H56V1A6.373,6.373,0,0,1,62.375,7.375Z" transform="translate(28.468 0.594)"/><path class="c" d="M93.251,59.375v3.188a6.394,6.394,0,0,1-6.375,6.375h-76.5A6.394,6.394,0,0,1,4,62.563V53H93.251Z" transform="translate(-2.408 31.469)"/><path class="a" d="M22.916,42H59.588a7.958,7.958,0,0,0,7.953,7.969H14.963A7.968,7.968,0,0,1,7.01,42Z" transform="translate(-0.621 24.938)"/><g transform="translate(-3.001)"><g transform="translate(3.001)"><path class="d" d="M87.467,69.306H10.97C6.576,69.306,3,66.071,3,62.1V53.442A1.522,1.522,0,0,1,4.595,52H93.842a1.522,1.522,0,0,1,1.594,1.442V62.1C95.436,66.071,91.861,69.306,87.467,69.306ZM6.189,54.884V62.1a4.577,4.577,0,0,0,4.781,4.326h76.5A4.577,4.577,0,0,0,92.249,62.1V54.884Z" transform="translate(-3.001 32.695)"/><path class="d" d="M62.968,9.563a1.593,1.593,0,0,1-1.594-1.594,4.787,4.787,0,0,0-4.781-4.781,1.594,1.594,0,1,1,0-3.188,7.978,7.978,0,0,1,7.969,7.969A1.593,1.593,0,0,1,62.968,9.563Z" transform="translate(27.874)"/><path class="d" d="M60.593,86.035A1.616,1.616,0,0,1,59,84.394V5.641a1.594,1.594,0,1,1,3.188,0V84.394A1.616,1.616,0,0,1,60.593,86.035Z" transform="translate(30.249 2.375)"/><path class="d" d="M56.593,86.956A1.6,1.6,0,0,1,55,85.346V1.61a1.594,1.594,0,1,1,3.188,0V85.346A1.6,1.6,0,0,1,56.593,86.956Z" transform="translate(27.874)"/><path class="d" d="M-1132.871-1009.481h-52.575a9.562,9.562,0,0,1-9.553-9.49c0-.02,0-.04,0-.059a1.593,1.593,0,0,1,1.594-1.594h14.314v-55.782A1.593,1.593,0,0,1-1177.5-1078h42.97a1.59,1.59,0,0,1,.922.259l.006,0,.012.008.021.015,0,0a1.593,1.593,0,0,1,.227.193l0,0,9.5,9.5a1.6,1.6,0,0,1,.376.527v0a.189.189,0,0,0,.009.021.058.058,0,0,0,0,.011l0,.008.006.014v0a1.581,1.581,0,0,1,.11.607v47.735c0,.018,0,.035,0,.053a9.561,9.561,0,0,1-9.55,9.55Zm-52.575-3.187h45.457a9.519,9.519,0,0,1-2.3-4.769h-34.979a1.6,1.6,0,0,1-.229.016,1.587,1.587,0,0,1-.228-.016h-13.882A6.376,6.376,0,0,0-1185.447-1012.667Zm9.542-7.957h35.074a1.593,1.593,0,0,1,1.594,1.594,6.371,6.371,0,0,0,6.365,6.362,6.37,6.37,0,0,0,6.364-6.3c0-.014,0-.03,0-.044v-46.236h-7.97a1.592,1.592,0,0,1-1.593-1.593v-7.969H-1175.9Zm43.02-47.812h4.121l-4.121-4.121Z" transform="translate(1199.793 1082.974)"/><path class="d" d="M54.87,24.188H24.595a1.594,1.594,0,1,1,0-3.188H54.87a1.594,1.594,0,1,1,0,3.188Z" transform="translate(8.874 12.469)"/><path class="d" d="M54.87,28.2H24.595a1.594,1.594,0,0,1,0-3.188H54.87a1.594,1.594,0,1,1,0,3.188Z" transform="translate(8.874 14.85)"/><path class="d" d="M54.87,32.208H24.595a1.594,1.594,0,0,1,0-3.188H54.87a1.594,1.594,0,1,1,0,3.188Z" transform="translate(8.874 17.231)"/><path class="d" d="M54.87,36.217H24.595a1.594,1.594,0,1,1,0-3.188H54.87a1.594,1.594,0,1,1,0,3.188Z" transform="translate(8.874 19.611)"/><path class="d" d="M9.593,55.78A1.592,1.592,0,0,1,8,54.186V52.6a1.594,1.594,0,1,1,3.188,0v1.591A1.592,1.592,0,0,1,9.593,55.78Z" transform="translate(-0.033 30.283)"/><path class="d" d="M14.593,56.969A1.592,1.592,0,0,1,13,55.375V50.594a1.594,1.594,0,1,1,3.188,0v4.781A1.592,1.592,0,0,1,14.593,56.969Z" transform="translate(2.935 29.094)"/><path class="d" d="M19.593,55.78A1.592,1.592,0,0,1,18,54.186V52.6a1.594,1.594,0,1,1,3.188,0v1.591A1.592,1.592,0,0,1,19.593,55.78Z" transform="translate(5.904 30.283)"/><path class="d" d="M24.593,56.969A1.592,1.592,0,0,1,23,55.375V50.594a1.594,1.594,0,1,1,3.188,0v4.781A1.592,1.592,0,0,1,24.593,56.969Z" transform="translate(8.873 29.094)"/><path class="d" d="M29.593,55.78A1.592,1.592,0,0,1,28,54.186V52.6a1.594,1.594,0,1,1,3.188,0v1.591A1.592,1.592,0,0,1,29.593,55.78Z" transform="translate(11.842 30.283)"/><path class="d" d="M34.593,56.969A1.592,1.592,0,0,1,33,55.375V50.594a1.594,1.594,0,1,1,3.188,0v4.781A1.592,1.592,0,0,1,34.593,56.969Z" transform="translate(14.811 29.094)"/><path class="d" d="M39.593,55.78A1.592,1.592,0,0,1,38,54.186V52.6a1.594,1.594,0,1,1,3.188,0v1.591A1.592,1.592,0,0,1,39.593,55.78Z" transform="translate(17.78 30.283)"/><path class="d" d="M44.593,56.969A1.592,1.592,0,0,1,43,55.375V50.594a1.594,1.594,0,0,1,3.188,0v4.781A1.592,1.592,0,0,1,44.593,56.969Z" transform="translate(20.748 29.094)"/><path class="d" d="M49.593,55.78A1.592,1.592,0,0,1,48,54.186V52.6a1.594,1.594,0,1,1,3.188,0v1.591A1.592,1.592,0,0,1,49.593,55.78Z" transform="translate(23.717 30.283)"/></g><g transform="translate(41.109 13.344)"><path class="d" d="M50.557,49.614,42.6,35.965a1.5,1.5,0,0,0-2.6,0L32.036,49.614a1.5,1.5,0,0,0,1.3,2.262H49.258a1.5,1.5,0,0,0,1.3-2.262Zm-1.161.837a.15.15,0,0,1-.138.08H33.335a.159.159,0,0,1-.138-.24l7.961-13.649a.152.152,0,0,1,.138-.079.154.154,0,0,1,.138.079L49.4,50.291A.154.154,0,0,1,49.4,50.452Z" transform="translate(-31.828 -35.219)"/><path class="d" d="M45.672,42a.672.672,0,0,0-.672.672V48.05a.672.672,0,1,0,1.344,0V42.673A.672.672,0,0,0,45.672,42Z" transform="translate(-36.147 -37.443)"/><path class="d" d="M45.195,54.2a.672.672,0,0,0,.477,1.149.694.694,0,0,0,.477-.195.675.675,0,0,0-.954-.954Z" transform="translate(-36.147 -41.381)"/></g></g></g></svg>