<svg xmlns="http://www.w3.org/2000/svg" width="16.012" height="16" viewBox="0 0 16.012 16"><g transform="translate(0 0)"><path d="M276.45,171.624h-4.976a.372.372,0,1,0,0,.743h4.976l-1.265,1.265a.372.372,0,0,0,.528.525l1.9-1.9a.37.37,0,0,0,0-.525l-1.9-1.9a.371.371,0,1,0-.525.525Z" transform="translate(-261.71 -163.999)"/><path d="M2.009,174.158a.372.372,0,1,0,.528-.525l-1.265-1.265H6.248a.372.372,0,1,0,0-.743H1.271l1.262-1.265a.371.371,0,1,0-.525-.525l-1.9,1.9a.37.37,0,0,0,0,.525Z" transform="translate(0 -163.999)"/><path d="M170.528,2.7l1.265-1.265V6.415a.373.373,0,1,0,.746,0V1.439L173.805,2.7a.372.372,0,0,0,.528-.525l-1.9-1.9a.381.381,0,0,0-.525,0l-1.9,1.9a.37.37,0,0,0,0,.525A.363.363,0,0,0,170.528,2.7Z" transform="translate(-164.162 -0.175)"/><path d="M171.973,271.025a.373.373,0,0,0-.373.373v4.976l-1.265-1.265a.371.371,0,1,0-.525.525l1.9,1.9a.372.372,0,0,0,.264.109.377.377,0,0,0,.264-.109l1.9-1.9a.371.371,0,1,0-.525-.525l-1.265,1.265V271.4A.375.375,0,0,0,171.973,271.025Z" transform="translate(-163.969 -261.643)"/></g></svg>