<svg xmlns="http://www.w3.org/2000/svg" width="16.615" height="13.487" viewBox="0 0 16.615 13.487"><g transform="translate(0 0)"><path d="M16.129,2.607H12.966V1.731l.9-.9a.487.487,0,0,0-.688-.688l-.7.7-.7-.7a.487.487,0,1,0-.688.688l.9.9v.876H.487A.487.487,0,0,0,0,3.094v7.3a.487.487,0,0,0,.487.487H11.992v.876l-.9.9a.487.487,0,1,0,.688.688l.7-.7.7.7a.487.487,0,0,0,.688-.688l-.9-.9V10.88h3.163a.487.487,0,0,0,.487-.487v-7.3a.487.487,0,0,0-.487-.487ZM.974,9.906V3.58H11.992V6.257h-.034a.487.487,0,1,0,0,.974h.034V9.906Zm14.668,0H12.966V7.23H13a.487.487,0,0,0,0-.974h-.035V3.58h2.676Zm0,0" transform="translate(0 0)"/></g></svg>