<svg xmlns="http://www.w3.org/2000/svg" width="16" height="15.043" viewBox="0 0 16 15.043"><defs><style>.a{fill:#999;}</style></defs><path class="a" d="M25.6,9.853H14.731a.811.811,0,0,1,0-1.622H25.6a.811.811,0,0,1,0,1.622Z" transform="translate(-10.414 -8.016)"/><circle class="a" cx="1.089" cy="1.089" r="1.089"/><g transform="translate(0 12.865)"><path class="a" d="M25.6,47.515H14.731a.811.811,0,0,1,0-1.622H25.6a.811.811,0,0,1,0,1.622Z" transform="translate(-10.414 -45.552)"/><circle class="a" cx="1.089" cy="1.089" r="1.089"/></g><g transform="translate(0 6.932)"><path class="a" d="M25.6,28.684H14.731a.811.811,0,1,1,0-1.622H25.6a.811.811,0,0,1,0,1.622Z" transform="translate(-10.414 -26.784)"/><circle class="a" cx="1.089" cy="1.089" r="1.089"/></g></svg>