<svg xmlns="http://www.w3.org/2000/svg" width="300.25" height="96.585" viewBox="0 0 300.25 96.585"><defs><style>.a{fill:none;}.b{fill:#fc9220;}.c{fill:#e56924;}.d{fill:#df4c24;}.e{fill:#d34125;}.f{fill:#999;}</style></defs><g transform="translate(0 0.008)"><path class="a" d="M571.841,264.089h-4.315a41.326,41.326,0,0,0,1.11,9.488l4.2-.988A37.069,37.069,0,0,1,571.841,264.089Z" transform="translate(-554.102 -216.278)"/><path class="b" d="M649.662,254.693a25.218,25.218,0,0,1-3.446,12.744l7.8,4.534a34.154,34.154,0,0,0,4.62-15.416l-4.109-.3q.039-.774.039-1.56A30.26,30.26,0,0,0,642.357,230.4l2.47-3.3a34.445,34.445,0,0,0-6.838-3.967l-3.619,8.266A25.415,25.415,0,0,1,649.662,254.693Z" transform="translate(-569.439 -206.882)"/><path class="b" d="M590.392,226.408q-.564.424-1.109.871l-.181.147q-.553.459-1.085.941l-.216.2c-.357.327-.708.66-1.051,1-.038.037-.074.076-.112.114q-.49.494-.96,1.007c-.049.052-.1.1-.145.156q-.483.533-.943,1.088l-.187.227q-.458.558-.894,1.137c-.039.052-.076.1-.114.156q-.414.558-.806,1.133c-.035.051-.071.1-.106.153q-.406.6-.784,1.223-.077.125-.153.251-.373.619-.722,1.255c-.036.064-.069.129-.1.194q-.333.618-.641,1.251c-.022.046-.046.092-.069.139-.213.442-.414.89-.608,1.342-.039.089-.077.18-.115.27q-.282.672-.536,1.358c-.028.076-.054.152-.082.227-.163.452-.319.908-.464,1.368-.011.036-.023.072-.035.108-.148.477-.284.96-.411,1.446-.025.094-.05.189-.074.284q-.183.716-.334,1.442c-.018.086-.035.173-.052.258-.1.49-.188.982-.265,1.479,0,.022-.008.043-.011.065-.078.508-.14,1.02-.2,1.535-.01.1-.022.194-.031.291q-.074.751-.116,1.512c0,.095-.008.19-.012.284-.025.529-.041,1.06-.041,1.6h5a29.382,29.382,0,0,1,11.88-23.6l.03-.022a29.253,29.253,0,0,1,14.066-5.584l-.571-4.962a34.215,34.215,0,0,0-16.549,6.587Z" transform="translate(-556.19 -206.104)"/><path class="b" d="M572.264,206.952q-1.177.876-2.3,1.813a54.784,54.784,0,0,0-19.744,38.674q-.111,1.751-.112,3.53h6.715q0-1.56.1-3.1a48.075,48.075,0,0,1,17.326-33.939q.989-.822,2.023-1.591l.049-.036-3.995-5.395Z" transform="translate(-550.104 -203.158)"/><path class="b" d="M641.674,282.747c.075-.076.153-.15.227-.228l2.45,2.319a25.5,25.5,0,0,0,3.541-4.716l-2.918-1.7A22.14,22.14,0,0,1,641.674,282.747Z" transform="translate(-571.115 -219.568)"/><path class="b" d="M587.6,290.49l8.531-8.995.03.028a22,22,0,0,1-6.266-10.894l-12.073,2.842A34.4,34.4,0,0,0,587.6,290.49Z" transform="translate(-556.465 -217.779)"/><path class="b" d="M638.437,207.928l-4.925,6.57c.091.068.177.141.267.209l-.271-.2c-.064-.048-.127-.1-.192-.144q-.658-.487-1.333-.949c-.078-.053-.154-.109-.232-.162-.526-.354-1.061-.7-1.6-1.028-.148-.091-.3-.178-.448-.267q-.621-.37-1.252-.72c-.168-.093-.335-.186-.5-.277q-.768-.413-1.554-.8c-.054-.026-.106-.055-.161-.081-.489-.236-.987-.455-1.486-.673a43.744,43.744,0,0,0-22.71-3.367l-.46-4a47.88,47.88,0,0,0-23.064,9.146l2.389,3.225a44.079,44.079,0,0,0-17.874,35.439h0a44.059,44.059,0,0,0,1.182,10.107l-4.537,1.068a48.763,48.763,0,0,0,89.618,13.344l.014-.023-4.028-2.34a43.8,43.8,0,0,0,5.91-19.58l8.2.6q.1-1.578.1-3.18A52.29,52.29,0,0,0,638.437,207.928Zm5.754,43.984a36.845,36.845,0,0,1-4.978,16.574l3.729,2.167a41.627,41.627,0,0,1-5.764,7.68l.008.008c-.122.129-.251.249-.375.376q-.369.38-.748.751c-.23.225-.463.447-.7.667q-.387.361-.784.712-.362.321-.73.633-.4.342-.818.673c-.251.2-.5.4-.76.6q-.422.322-.853.633c-.26.19-.522.377-.787.56-.292.2-.589.4-.887.593-.269.176-.539.351-.811.521-.3.189-.612.371-.92.551-.277.163-.554.324-.835.481-.313.174-.633.341-.952.507-.284.149-.569.3-.858.44-.324.159-.653.31-.982.461-.291.134-.582.27-.877.4-.336.145-.676.28-1.016.416-.3.119-.591.24-.891.351-.348.13-.7.249-1.051.37-.3.1-.6.21-.9.305-.359.114-.724.217-1.086.321-.3.087-.6.178-.908.259-.374.1-.752.183-1.13.27-.3.07-.6.146-.9.209-.391.082-.788.149-1.182.22-.3.052-.591.113-.89.159-.417.066-.839.114-1.261.166-.281.035-.561.079-.845.108-.47.049-.945.079-1.419.112-.24.017-.477.042-.717.055q-1.076.055-2.165.057-1.037,0-2.06-.051c-.22-.011-.435-.034-.654-.048-.461-.03-.922-.057-1.379-.1-.272-.026-.538-.067-.809-.1-.4-.047-.8-.089-1.2-.148-.285-.042-.565-.1-.848-.146-.376-.064-.754-.122-1.127-.2-.288-.057-.572-.128-.859-.191-.361-.08-.725-.154-1.083-.244-.293-.072-.58-.16-.87-.238-.346-.095-.694-.183-1.037-.286-.292-.089-.579-.19-.868-.284-.334-.109-.671-.212-1-.329-.287-.1-.567-.216-.851-.324-.327-.124-.656-.242-.979-.374-.281-.116-.556-.243-.834-.364-.318-.138-.639-.271-.952-.417-.276-.129-.545-.268-.817-.4-.309-.153-.621-.3-.925-.458-.271-.142-.534-.3-.8-.442-.3-.165-.6-.325-.894-.5-.266-.155-.523-.321-.785-.482-.287-.177-.578-.349-.861-.532-.258-.168-.508-.346-.764-.519-.277-.189-.558-.374-.83-.569-.25-.18-.492-.369-.738-.554-.267-.2-.539-.4-.8-.606-.24-.19-.473-.391-.71-.586-.258-.213-.52-.423-.773-.643-.232-.2-.455-.411-.683-.617s-.461-.408-.684-.619l-.052-.052-.008-.008,2.974-3.136a37.1,37.1,0,0,1-10.549-18.357l-4.2.988a41.331,41.331,0,0,1-1.11-9.489h0A41.384,41.384,0,0,1,582.5,216.58l2.567,3.467A36.909,36.909,0,0,1,602.837,213l-.494-4.286a41.076,41.076,0,0,1,21.318,3.158l-1.73,3.952a37.181,37.181,0,0,1,7.375,4.28l2.588-3.451a41.387,41.387,0,0,1,16.672,33.194c0,.8-.029,1.59-.073,2.378Z" transform="translate(-552.299 -202.041)"/><path class="b" d="M620,218.632a34.2,34.2,0,0,1,13.705,2.855l1.082-2.472A36.887,36.887,0,0,0,620,215.933a37.33,37.33,0,0,0-4.307.258l.309,2.682A34.43,34.43,0,0,1,620,218.632Z" transform="translate(-565.153 -205.229)"/><path class="b" d="M575.825,264.088h-2.7a37.071,37.071,0,0,0,.994,8.5l2.627-.619A34.339,34.339,0,0,1,575.825,264.088Z" transform="translate(-555.386 -216.278)"/><g transform="translate(6.715 9.146)"><path class="c" d="M580.7,217.136l-2.389-3.225-.049.036q-1.032.77-2.023,1.591a48.075,48.075,0,0,0-17.326,33.939q-.1,1.536-.1,3.1h4.011A44.079,44.079,0,0,1,580.7,217.136Z" transform="translate(-558.818 -213.911)"/><path class="c" d="M586.874,224.376l-2.567-3.467a41.384,41.384,0,0,0-16.781,33.271h4.315A37.072,37.072,0,0,1,586.874,224.376Z" transform="translate(-560.816 -215.517)"/><path class="c" d="M659.325,298.118a41.618,41.618,0,0,0,5.764-7.68l-3.729-2.167a37.263,37.263,0,0,1-5.166,6.883Z" transform="translate(-581.161 -230.973)"/><path class="c" d="M645.148,285.343l6.553,6.2a34.607,34.607,0,0,0,4.792-6.385l-7.8-4.534A25.5,25.5,0,0,1,645.148,285.343Z" transform="translate(-578.627 -229.219)"/><path class="c" d="M647.205,228.29l-2.47,3.3a30.26,30.26,0,0,1,12.213,24.288q0,.785-.039,1.56l4.109.3c.033-.616.052-1.238.052-1.862A34.377,34.377,0,0,0,647.205,228.29Z" transform="translate(-578.532 -217.21)"/><path class="c" d="M652.63,221.009l-2.588,3.451A37.077,37.077,0,0,1,664.987,254.2c0,.692-.022,1.379-.06,2.06l4.3.317c.045-.787.073-1.58.073-2.378A41.387,41.387,0,0,0,652.63,221.009Z" transform="translate(-579.75 -215.54)"/><path class="c" d="M640.149,219.933l-1.082,2.472a34.44,34.44,0,0,1,6.838,3.968l1.619-2.159A37.183,37.183,0,0,0,640.149,219.933Z" transform="translate(-577.231 -215.293)"/><path class="c" d="M659.871,281.921l2.332,1.356a36.846,36.846,0,0,0,4.979-16.574l-2.692-.2A34.151,34.151,0,0,1,659.871,281.921Z" transform="translate(-582.005 -225.979)"/><path class="c" d="M594.2,225.5l-.043.034a34.215,34.215,0,0,1,16.549-6.587l-.309-2.682a36.908,36.908,0,0,0-17.766,7.043l1.6,2.165Z" transform="translate(-566.577 -214.452)"/><path class="c" d="M577.043,274.317l-2.627.619a37.1,37.1,0,0,0,10.549,18.357l1.856-1.956A34.4,34.4,0,0,1,577.043,274.317Z" transform="translate(-562.397 -227.771)"/><path class="c" d="M584.255,302.088c.24.229.491.448.737.672.227.206.451.416.683.617.253.22.515.429.773.643.237.2.469.4.71.586.263.207.535.4.8.606.246.185.488.374.738.554.272.195.552.38.83.569.255.173.505.351.764.519.283.183.573.355.861.532.262.161.519.328.785.482.294.172.6.332.894.5.267.147.53.3.8.442.3.159.616.306.925.458.272.134.541.273.817.4.314.146.634.279.952.417.278.121.553.248.834.364.323.132.652.25.979.374.284.108.565.222.852.324.33.117.667.22,1,.329.29.094.576.195.868.284.343.1.691.191,1.037.286.29.079.577.166.87.238.357.089.721.163,1.083.243.287.063.571.134.859.191.373.074.751.132,1.127.2.283.049.563.1.848.146.4.059.8.1,1.2.148.271.032.537.073.809.1.456.045.918.072,1.378.1.219.014.435.037.654.048q1.024.051,2.06.051v-4.315h0a36.962,36.962,0,0,1-25.563-10.249l-2.974,3.136Z" transform="translate(-564.653 -233.422)"/><path class="c" d="M629.935,283.965q-.148.151-.3.3-.334.328-.683.643c-.089.081-.176.163-.265.241-.32.281-.647.553-.984.815-.051.04-.1.077-.156.117q-.433.33-.882.639c-.113.078-.227.153-.341.228q-.381.252-.773.489c-.117.07-.233.141-.351.21q-.488.282-.99.54c-.049.025-.1.052-.145.077-.384.193-.775.372-1.17.542-.114.049-.23.094-.346.142q-.437.179-.883.341c-.135.049-.271.1-.406.143q-.468.158-.945.3c-.107.031-.213.065-.321.094q-.632.172-1.279.308c-.092.019-.186.033-.277.052-.345.067-.692.126-1.043.178-.144.021-.288.039-.433.057-.318.039-.64.072-.962.1-.137.011-.274.024-.411.032-.453.028-.908.046-1.367.046-.348,0-.694-.009-1.037-.025-.114-.005-.227-.015-.34-.022-.23-.014-.459-.029-.687-.051-.132-.012-.263-.028-.394-.042-.208-.023-.416-.048-.622-.077-.137-.019-.273-.041-.409-.062-.2-.032-.4-.066-.595-.1-.136-.026-.272-.052-.407-.081-.2-.041-.395-.086-.59-.132-.13-.031-.26-.062-.39-.095-.2-.052-.4-.109-.606-.167-.119-.034-.238-.066-.355-.1-.231-.07-.459-.147-.686-.225-.085-.029-.17-.056-.254-.085q-.466-.166-.921-.352c-.065-.026-.128-.055-.192-.082-.238-.1-.475-.2-.71-.311-.106-.049-.209-.1-.314-.152-.19-.092-.38-.183-.566-.28-.115-.059-.228-.121-.342-.183-.174-.094-.347-.19-.518-.288-.116-.066-.23-.134-.344-.2q-.25-.15-.5-.307c-.112-.072-.223-.143-.334-.217-.165-.109-.327-.221-.489-.334-.1-.073-.21-.146-.314-.221-.171-.125-.338-.253-.505-.382-.089-.069-.18-.136-.267-.206-.213-.169-.42-.343-.626-.519-.039-.034-.081-.066-.12-.1q-.365-.318-.717-.653l-.03-.028-8.531,8.995A34.276,34.276,0,0,0,614.222,303h0v-9.029a25.3,25.3,0,0,0,18.391-7.918l-2.45-2.319C630.089,283.815,630.01,283.889,629.935,283.965Z" transform="translate(-566.091 -229.933)"/></g><g transform="translate(17.74 18.005)"><path class="d" d="M584.875,231.986q.47-.513.96-1.007c.038-.038.074-.077.112-.114.343-.342.694-.675,1.051-1l.216-.2q.533-.481,1.085-.941l.181-.147q.546-.446,1.109-.871l.1-.073.043-.034.035-.026-1.6-2.165a37.072,37.072,0,0,0-15.033,29.8h2.7c0-.535.016-1.066.041-1.6,0-.095.008-.19.012-.284q.041-.761.116-1.512c.009-.1.021-.194.031-.291.056-.515.118-1.027.2-1.535,0-.022.008-.044.011-.065.077-.5.167-.989.265-1.479.017-.086.033-.172.052-.258q.15-.727.334-1.443c.024-.095.049-.19.074-.284.128-.486.263-.969.411-1.446.012-.036.024-.072.035-.108.145-.46.3-.916.464-1.368.028-.075.054-.152.082-.227q.253-.687.536-1.358c.038-.09.076-.18.115-.27.194-.452.4-.9.608-1.341.022-.047.046-.092.069-.139q.307-.633.641-1.251c.035-.065.069-.13.1-.194q.348-.637.722-1.255c.051-.084.1-.168.153-.251.254-.413.514-.821.784-1.223.035-.052.071-.1.106-.153q.392-.574.806-1.133l.114-.156c.29-.386.589-.764.894-1.137l.187-.227q.461-.554.943-1.088C584.777,232.089,584.826,232.039,584.875,231.986Z" transform="translate(-573.126 -225.408)"/><path class="d" d="M658.444,286.511a34.61,34.61,0,0,1-4.792,6.385l1.959,1.854a37.267,37.267,0,0,0,5.166-6.883Z" transform="translate(-591.603 -239.428)"/><path class="d" d="M649.56,225.488l-1.619,2.159a34.377,34.377,0,0,1,13.865,27.584c0,.625-.019,1.246-.052,1.862l2.691.2c.038-.682.06-1.368.06-2.06A37.077,37.077,0,0,0,649.56,225.488Z" transform="translate(-590.292 -225.426)"/><path class="d" d="M621.282,308.793v4.315q1.089,0,2.165-.057c.24-.012.478-.038.717-.055.475-.032.949-.063,1.419-.112.284-.029.563-.072.845-.108.421-.052.844-.1,1.261-.166.3-.046.593-.106.89-.159.394-.071.791-.138,1.182-.22.3-.063.6-.139.9-.209.377-.088.756-.173,1.13-.271.305-.081.6-.172.908-.259.363-.1.727-.207,1.086-.321.3-.1.6-.2.9-.305.351-.121.7-.24,1.051-.37.3-.112.594-.233.891-.351.34-.136.68-.271,1.016-.416.3-.128.586-.264.877-.4.329-.151.658-.3.982-.462.289-.142.573-.291.858-.44.319-.167.638-.333.952-.507.281-.156.558-.318.835-.481.308-.18.616-.362.92-.551.273-.17.542-.345.811-.521.3-.195.595-.391.887-.593.265-.183.526-.371.787-.56q.43-.312.853-.633c.256-.2.509-.4.76-.6q.413-.332.818-.673.369-.312.731-.633.4-.351.784-.712c.235-.22.468-.441.7-.667q.38-.37.748-.751c.124-.126.245-.256.367-.385l-3.132-2.964A37,37,0,0,1,621.282,308.793Z" transform="translate(-584.176 -241.882)"/><path class="d" d="M646.224,292.95l-6.553-6.2a25.3,25.3,0,0,1-18.391,7.918v9.029A34.305,34.305,0,0,0,646.224,292.95Z" transform="translate(-584.175 -239.482)"/><path class="d" d="M613.669,305.91a34.276,34.276,0,0,1-23.707-9.506l-1.856,1.956a36.962,36.962,0,0,0,25.563,10.249h0v-2.7Z" transform="translate(-576.563 -241.698)"/></g><path class="e" d="M621.282,305.541v2.7a37,37,0,0,0,26.9-11.59l-1.959-1.854A34.305,34.305,0,0,1,621.282,305.541Z" transform="translate(-566.436 -223.324)"/></g><path class="f" d="M-166.728-10.52h-1.4v-9.833h-3.457v-1.225h8.29v1.225h-3.434Zm14.614-5.544a6.088,6.088,0,0,1-1.343,4.175,4.748,4.748,0,0,1-3.756,1.52,4.8,4.8,0,0,1-3.778-1.494,6.115,6.115,0,0,1-1.335-4.217A6.072,6.072,0,0,1-161-20.267a4.83,4.83,0,0,1,3.8-1.486,4.744,4.744,0,0,1,3.744,1.509A6.079,6.079,0,0,1-152.115-16.065Zm-8.744,0a5.209,5.209,0,0,0,.93,3.343,3.288,3.288,0,0,0,2.715,1.15,3.277,3.277,0,0,0,2.7-1.135,5.229,5.229,0,0,0,.923-3.358,5.2,5.2,0,0,0-.915-3.34,3.27,3.27,0,0,0-2.693-1.123,3.321,3.321,0,0,0-2.731,1.138A5.147,5.147,0,0,0-160.859-16.065Zm19.6-5.514v7.156a3.9,3.9,0,0,1-1.142,2.973,4.425,4.425,0,0,1-3.169,1.082,4.229,4.229,0,0,1-3.109-1.093,4.019,4.019,0,0,1-1.1-2.992v-7.125h1.4v7.171a2.877,2.877,0,0,0,.722,2.1,2.908,2.908,0,0,0,2.175.741,2.859,2.859,0,0,0,2.107-.734,2.859,2.859,0,0,0,.738-2.118v-7.156Zm7.647,1.067a3.5,3.5,0,0,0-2.806,1.2,4.868,4.868,0,0,0-1.021,3.268,4.941,4.941,0,0,0,.991,3.3,3.506,3.506,0,0,0,2.821,1.161,9.416,9.416,0,0,0,2.655-.439v1.21a6.8,6.8,0,0,1-1.354.352,10.519,10.519,0,0,1-1.5.095,4.769,4.769,0,0,1-3.763-1.486,6.131,6.131,0,0,1-1.32-4.209,6.717,6.717,0,0,1,.632-3,4.543,4.543,0,0,1,1.838-1.982,5.586,5.586,0,0,1,2.84-.7,6.755,6.755,0,0,1,3.056.651l-.56,1.18A6.049,6.049,0,0,0-133.613-20.512ZM-120.1-10.52H-121.5v-5.159h-5.673v5.159h-1.392V-21.579h1.392V-16.9h5.673v-4.675h1.392Zm2.277-3.964v-1.271h3.752v1.271Zm6.013,3.964V-21.579h1.392v9.818h4.833v1.24Zm14.3,0h-6.18V-21.579h6.18v1.225h-4.788V-16.9H-97.8v1.21h-4.508v3.948h4.788Zm8.706-2.958A2.754,2.754,0,0,1-89.855-11.2a4.546,4.546,0,0,1-2.9.832,7.121,7.121,0,0,1-3.041-.522v-1.331a8.029,8.029,0,0,0,1.539.477,7.69,7.69,0,0,0,1.562.174,3.064,3.064,0,0,0,1.868-.477,1.553,1.553,0,0,0,.628-1.309,1.659,1.659,0,0,0-.227-.908,2.172,2.172,0,0,0-.76-.666,10.637,10.637,0,0,0-1.615-.7A5.247,5.247,0,0,1-95-16.954a2.892,2.892,0,0,1-.658-1.963,2.481,2.481,0,0,1,.972-2.057,4.025,4.025,0,0,1,2.56-.764,7.4,7.4,0,0,1,3.048.62l-.431,1.2a6.943,6.943,0,0,0-2.647-.59,2.487,2.487,0,0,0-1.539.424A1.407,1.407,0,0,0-94.25-18.9a1.732,1.732,0,0,0,.216.9,2.016,2.016,0,0,0,.7.654,9.036,9.036,0,0,0,1.509.673,8.256,8.256,0,0,1,1.838.881,2.776,2.776,0,0,1,.893.983A2.857,2.857,0,0,1-88.812-13.478Zm8.5,0A2.754,2.754,0,0,1-81.353-11.2a4.546,4.546,0,0,1-2.9.832,7.121,7.121,0,0,1-3.041-.522v-1.331a8.029,8.029,0,0,0,1.539.477,7.69,7.69,0,0,0,1.562.174,3.064,3.064,0,0,0,1.868-.477,1.553,1.553,0,0,0,.628-1.309,1.659,1.659,0,0,0-.227-.908,2.172,2.172,0,0,0-.76-.666,10.637,10.637,0,0,0-1.615-.7,5.247,5.247,0,0,1-2.194-1.32,2.892,2.892,0,0,1-.658-1.963,2.481,2.481,0,0,1,.972-2.057,4.025,4.025,0,0,1,2.56-.764,7.4,7.4,0,0,1,3.048.62l-.431,1.2a6.943,6.943,0,0,0-2.647-.59,2.487,2.487,0,0,0-1.539.424,1.407,1.407,0,0,0-.556,1.188,1.732,1.732,0,0,0,.216.9,2.016,2.016,0,0,0,.7.654,9.036,9.036,0,0,0,1.509.673,8.256,8.256,0,0,1,1.838.881,2.776,2.776,0,0,1,.893.983A2.857,2.857,0,0,1-80.31-13.478Zm13.192,2.958-1.331-3.426h-4.387l-1.316,3.426h-1.407l4.319-11.1h1.256l4.311,11.1Zm-1.747-4.659-1.241-3.351-.529-1.657q-.227.908-.477,1.657l-1.256,3.351Zm9.3-5.333a3.5,3.5,0,0,0-2.806,1.2A4.868,4.868,0,0,0-63.4-16.05a4.941,4.941,0,0,0,.991,3.3,3.506,3.506,0,0,0,2.821,1.161,9.416,9.416,0,0,0,2.655-.439v1.21a6.8,6.8,0,0,1-1.354.352,10.519,10.519,0,0,1-1.5.095,4.769,4.769,0,0,1-3.763-1.486,6.131,6.131,0,0,1-1.32-4.209,6.717,6.717,0,0,1,.632-3,4.543,4.543,0,0,1,1.838-1.982,5.586,5.586,0,0,1,2.84-.7,6.755,6.755,0,0,1,3.056.651l-.56,1.18A6.049,6.049,0,0,0-59.569-20.512Zm9.637,0a3.5,3.5,0,0,0-2.806,1.2A4.867,4.867,0,0,0-53.76-16.05a4.941,4.941,0,0,0,.991,3.3,3.506,3.506,0,0,0,2.821,1.161,9.416,9.416,0,0,0,2.655-.439v1.21a6.8,6.8,0,0,1-1.354.352,10.519,10.519,0,0,1-1.5.095,4.769,4.769,0,0,1-3.763-1.486,6.131,6.131,0,0,1-1.32-4.209,6.717,6.717,0,0,1,.632-3,4.543,4.543,0,0,1,1.838-1.982,5.586,5.586,0,0,1,2.84-.7,6.755,6.755,0,0,1,3.056.651l-.56,1.18A6.049,6.049,0,0,0-49.933-20.512Zm14.553,4.448a6.088,6.088,0,0,1-1.343,4.175,4.748,4.748,0,0,1-3.756,1.52,4.8,4.8,0,0,1-3.778-1.494,6.115,6.115,0,0,1-1.335-4.217,6.072,6.072,0,0,1,1.327-4.187,4.83,4.83,0,0,1,3.8-1.486,4.744,4.744,0,0,1,3.744,1.509A6.079,6.079,0,0,1-35.379-16.065Zm-8.744,0a5.209,5.209,0,0,0,.93,3.343,3.288,3.288,0,0,0,2.715,1.15,3.277,3.277,0,0,0,2.7-1.135,5.229,5.229,0,0,0,.923-3.358,5.2,5.2,0,0,0-.915-3.34,3.27,3.27,0,0,0-2.693-1.123,3.321,3.321,0,0,0-2.731,1.138A5.147,5.147,0,0,0-44.123-16.065Zm19.6-5.514v7.156a3.9,3.9,0,0,1-1.142,2.973,4.425,4.425,0,0,1-3.169,1.082,4.229,4.229,0,0,1-3.109-1.093,4.019,4.019,0,0,1-1.1-2.992v-7.125h1.4v7.171a2.877,2.877,0,0,0,.722,2.1,2.908,2.908,0,0,0,2.175.741,2.859,2.859,0,0,0,2.107-.734,2.859,2.859,0,0,0,.737-2.118v-7.156ZM-12.846-10.52h-1.626L-20.4-19.7h-.061l.038.613q.091,1.377.091,2.39v6.18h-1.286V-21.579H-20l.34.537,3.631,5.612,1.929,3h.061q-.015-.182-.061-1.3t-.045-1.615v-6.24h1.3Zm6.505,0h-1.4v-9.833H-11.2v-1.225h8.29v1.225H-6.341ZM5.043-13.478A2.754,2.754,0,0,1,4-11.2a4.546,4.546,0,0,1-2.9.832,7.121,7.121,0,0,1-3.041-.522v-1.331a8.029,8.029,0,0,0,1.539.477,7.69,7.69,0,0,0,1.562.174,3.064,3.064,0,0,0,1.868-.477,1.553,1.553,0,0,0,.628-1.309,1.659,1.659,0,0,0-.227-.908,2.172,2.172,0,0,0-.76-.666,10.637,10.637,0,0,0-1.615-.7,5.247,5.247,0,0,1-2.194-1.32A2.892,2.892,0,0,1-1.8-18.916a2.481,2.481,0,0,1,.972-2.057,4.025,4.025,0,0,1,2.56-.764,7.4,7.4,0,0,1,3.048.62l-.431,1.2a6.943,6.943,0,0,0-2.647-.59,2.487,2.487,0,0,0-1.539.424A1.407,1.407,0,0,0-.4-18.9,1.732,1.732,0,0,0-.18-18a2.016,2.016,0,0,0,.7.654,9.037,9.037,0,0,0,1.509.673,8.256,8.256,0,0,1,1.838.881,2.776,2.776,0,0,1,.893.983A2.857,2.857,0,0,1,5.043-13.478ZM-147.788,2.845a3.1,3.1,0,0,1-1.157,2.6,5.186,5.186,0,0,1-3.26.9h-1.271v4.3h-1.392V-.408h2.927Q-147.788-.408-147.788,2.845Zm-5.688,2.307h1.112a4.167,4.167,0,0,0,2.39-.533,1.966,1.966,0,0,0,.741-1.713,1.887,1.887,0,0,0-.688-1.6A3.524,3.524,0,0,0-152.069.78h-1.407Zm14.538,5.5-1.331-3.426h-4.387l-1.316,3.426h-1.407l4.319-11.1h1.256l4.311,11.1Zm-1.747-4.659-1.24-3.351-.529-1.657q-.227.908-.477,1.657l-1.256,3.351Zm7.14-.961,2.882-5.439h1.5l-3.684,6.77v4.289h-1.4V6.423l-3.684-6.83h1.52Zm12.367,5.62-1.331-3.426H-126.9l-1.316,3.426h-1.407l4.319-11.1h1.256l4.311,11.1Zm-1.747-4.659-1.24-3.351L-124.7.984q-.227.908-.477,1.657l-1.256,3.351Zm4.712-6.4h3.154a5.942,5.942,0,0,1,3.211.662,2.322,2.322,0,0,1,.987,2.076,2.436,2.436,0,0,1-.537,1.622,2.568,2.568,0,0,1-1.566.828v.076a3.174,3.174,0,0,1,1.88.885,2.529,2.529,0,0,1,.6,1.762A2.829,2.829,0,0,1-111.5,9.819a4.339,4.339,0,0,1-2.829.832h-3.888Zm1.392,4.7h2.042a3.344,3.344,0,0,0,1.891-.416,1.584,1.584,0,0,0,.59-1.392,1.421,1.421,0,0,0-.647-1.309,4.008,4.008,0,0,0-2.046-.4h-1.83Zm0,1.165V9.471h2.231a3.133,3.133,0,0,0,1.974-.514,1.875,1.875,0,0,0,.643-1.558,1.659,1.659,0,0,0-.681-1.464,3.594,3.594,0,0,0-2.042-.473Zm8.676,5.189V-.408h1.392V9.41h4.833v1.24Zm14.3,0h-6.18V-.408h6.18V.818h-4.788V4.267h4.508v1.21h-4.508V9.425h4.788Zm13.54-7.806a3.1,3.1,0,0,1-1.157,2.6,5.186,5.186,0,0,1-3.26.9H-86v4.3h-1.392V-.408h2.927Q-80.31-.408-80.31,2.845ZM-86,5.152h1.112a4.167,4.167,0,0,0,2.39-.533,1.966,1.966,0,0,0,.741-1.713,1.887,1.887,0,0,0-.688-1.6A3.524,3.524,0,0,0-84.591.78H-86Zm7.98,5.5V-.408h1.392V9.41h4.833v1.24Zm15.052,0L-64.3,7.224h-4.387L-70,10.651h-1.407l4.319-11.1h1.256l4.311,11.1Zm-1.747-4.659-1.24-3.351L-66.483.984q-.227.908-.477,1.657l-1.256,3.351Zm7.685,4.659h-1.4V.818h-3.457V-.408h8.29V.818h-3.434Zm6.505,0h-1.392V-.408h6.18V.818h-4.788V4.736h4.493V5.954h-4.493Zm16.3-5.544a6.088,6.088,0,0,1-1.343,4.175A4.748,4.748,0,0,1-39.32,10.8,4.8,4.8,0,0,1-43.1,9.308a6.115,6.115,0,0,1-1.335-4.217A6.072,6.072,0,0,1-43.106.9a4.83,4.83,0,0,1,3.8-1.486A4.744,4.744,0,0,1-35.561.927,6.079,6.079,0,0,1-34.222,5.106Zm-8.744,0a5.209,5.209,0,0,0,.93,3.343A3.288,3.288,0,0,0-39.32,9.6a3.277,3.277,0,0,0,2.7-1.135A5.229,5.229,0,0,0-35.7,5.106a5.2,5.2,0,0,0-.915-3.34A3.27,3.27,0,0,0-39.305.644a3.321,3.321,0,0,0-2.731,1.138A5.147,5.147,0,0,0-42.966,5.106Zm12.579-.2h1.657a3,3,0,0,0,1.967-.529,1.954,1.954,0,0,0,.62-1.573,1.8,1.8,0,0,0-.628-1.524,3.384,3.384,0,0,0-2.035-.48h-1.581Zm0,1.18v4.569h-1.392V-.408h3.048a4.868,4.868,0,0,1,3.045.783A2.825,2.825,0,0,1-24.7,2.731,2.928,2.928,0,0,1-26.915,5.7l3.033,4.954h-1.626l-2.678-4.569Zm13.124,4.569-3.646-9.7h-.061q.113,1.21.113,2.988v6.709h-1.286V-.408h2.057l3.411,9.062h.061l3.472-9.062H-11.1V10.651h-1.377v-6.8q0-1.135.106-2.882h-.061l-3.691,9.682Z" transform="translate(294.418 85.783)"/><path class="c" d="M28.059,102.572H17V59.631H2.843v-9.2H42.218v9.2H28.059Zm51.608,0L75.886,90.161H56.876L53.1,102.572H41.184l18.4-52.357H73.1l18.475,52.357Zm-6.42-21.685Q68,64.018,67.344,61.806t-.945-3.5q-1.177,4.565-6.741,22.576ZM109.2,74.967h3.638q5.1,0,7.632-2.015A7.053,7.053,0,0,0,123,67.085q0-3.888-2.122-5.742t-6.652-1.855H109.2Zm24.966-8.274q0,8.417-5.261,12.875t-14.962,4.458H109.2v18.546H98.142V50.429H114.8q9.487,0,14.427,4.084T134.164,66.692Zm20.9,8.274H158.7q5.1,0,7.632-2.015a7.053,7.053,0,0,0,2.532-5.867q0-3.888-2.122-5.742t-6.652-1.855h-5.029Zm24.966-8.274q0,8.417-5.261,12.875t-14.962,4.458h-4.744v18.546H144.008V50.429h16.656q9.487,0,14.427,4.084T180.031,66.692Z" transform="translate(120.219 -50.215)"/></svg>