<svg xmlns="http://www.w3.org/2000/svg" xmlns:xlink="http://www.w3.org/1999/xlink" width="120" height="120" viewBox="0 0 120 120"><defs><clipPath id="b"><rect width="120" height="120"/></clipPath></defs><g id="a" clip-path="url(#b)"><rect width="120" height="120" fill="#fff"/><path d="M120,60A60,60,0,1,1,60,0,60,60,0,0,1,120,60Zm0,0" fill="#18282d"/><path d="M123.657,123.653,87.1,87.1,50.541,123.656a51.7,51.7,0,1,1,73.116,0Zm0,0" transform="translate(-27.101 -27.098)" fill="#ff2751"/><path d="M292.561,100.016A51.539,51.539,0,0,1,307.7,136.573H256Zm0,0" transform="translate(-196.005 -76.575)" fill="#28b24b"/><path d="M256,256h51.7a51.541,51.541,0,0,1-15.144,36.557Zm0,0" transform="translate(-196.005 -196.002)" fill="#39d365"/><path d="M292.561,50.535v0L256,87.094v-51.7A51.537,51.537,0,0,1,292.561,50.535Zm0,0" transform="translate(-196.005 -27.096)" fill="#f4ca19"/><path d="M136.571,35.391v51.7L100.012,50.535A51.545,51.545,0,0,1,136.571,35.391Zm0,0" transform="translate(-76.572 -27.096)" fill="#e29b0e"/><path d="M87.1,256,50.539,292.559A51.536,51.536,0,0,1,35.395,256Zm0,0" transform="translate(-27.099 -196.002)" fill="#d10f46"/><path d="M200.323,175.761A24.562,24.562,0,1,1,175.761,151.2,24.562,24.562,0,0,1,200.323,175.761Zm0,0" transform="translate(-115.763 -115.763)" fill="#18282d"/><path d="M286.259,163.2l-42.548,18.162,4.357,7.946Zm0,0" transform="translate(-186.593 -124.948)" fill="#fff"/><path d="M234.759,225.38a9.371,9.371,0,1,1-9.372-9.372A9.372,9.372,0,0,1,234.759,225.38Zm0,0" transform="translate(-165.389 -165.383)" fill="#e6e6e6"/><g transform="translate(38.607 88.716)"><path d="M306.6,398.616H299.5a2.323,2.323,0,0,1-2.324-2.323V380.858a2.323,2.323,0,0,1,2.324-2.323H306.6a2.323,2.323,0,0,1,2.323,2.323v15.435A2.323,2.323,0,0,1,306.6,398.616Zm0,0" transform="translate(-266.138 -378.535)" fill="#31474c"/><path d="M240.37,398.616h-7.093a2.323,2.323,0,0,1-2.324-2.323V380.858a2.323,2.323,0,0,1,2.324-2.323h7.093a2.323,2.323,0,0,1,2.324,2.323v15.435A2.323,2.323,0,0,1,240.37,398.616Zm0,0" transform="translate(-215.433 -378.535)" fill="#31474c"/><path d="M174.146,398.616h-7.093a2.323,2.323,0,0,1-2.323-2.323V380.858a2.323,2.323,0,0,1,2.323-2.323h7.093a2.323,2.323,0,0,1,2.324,2.323v15.435A2.323,2.323,0,0,1,174.146,398.616Zm0,0" transform="translate(-164.73 -378.535)" fill="#31474c"/></g><path d="M23,49H20V47h3a1,1,0,0,0,0-2,3,3,0,0,1,0-6h3v2H23a1,1,0,0,0,0,2,3,3,0,0,1,0,6Z" transform="translate(21.578 55.578)" fill="#8799b3"/><path d="M22,37h2v3H22Z" transform="translate(21.578 55.578)" fill="#8799b3"/><path d="M23,49H20V47h3a1,1,0,0,0,0-2,3,3,0,0,1,0-6h3v2H23a1,1,0,0,0,0,2,3,3,0,0,1,0,6Z" transform="translate(36.578 55.578)" fill="#8799b3"/><path d="M22,37h2v3H22Z" transform="translate(36.578 55.578)" fill="#8799b3"/><path d="M23,49H20V47h3a1,1,0,0,0,0-2,3,3,0,0,1,0-6h3v2H23a1,1,0,0,0,0,2,3,3,0,0,1,0,6Z" transform="translate(51.578 55.578)" fill="#8799b3"/><path d="M22,37h2v3H22Z" transform="translate(51.578 55.578)" fill="#8799b3"/></g></svg>