<svg xmlns="http://www.w3.org/2000/svg" xmlns:xlink="http://www.w3.org/1999/xlink" width="120" height="120" viewBox="0 0 120 120"><defs><clipPath id="b"><rect width="120" height="120"/></clipPath></defs><g id="a" clip-path="url(#b)"><rect width="120" height="120" fill="#fff"/><g transform="translate(0 0)"><path d="M89.852,77.673a52.79,52.79,0,1,0,15.373,37.2A52.356,52.356,0,0,0,89.852,77.673Z" transform="translate(0 -47.723)" fill="#fd4e26"/><path d="M277.577,114.877A52.488,52.488,0,0,1,225,167.525V62.3a52.487,52.487,0,0,1,52.577,52.577Z" transform="translate(-172.352 -47.723)" fill="#fd3018"/><path d="M125.915,133.3a38.608,38.608,0,1,0,0,54.613A38.655,38.655,0,0,0,125.915,133.3Z" transform="translate(-45.961 -93.453)" fill="#e1e4fb"/><path d="M252.307,187.915A38.334,38.334,0,0,1,225,199.217V122a38.608,38.608,0,0,1,27.307,65.915Z" transform="translate(-172.352 -93.453)" fill="#c5c9f7"/><path d="M161.907,189.23a24.489,24.489,0,0,0-34.747,0,24.57,24.57,0,1,0,34.747,0Z" transform="translate(-91.921 -139.414)" fill="#fd4e26"/><path d="M242.338,223.977A24.5,24.5,0,0,1,225,231.138V182a24.168,24.168,0,0,1,17.338,7.23A24.53,24.53,0,0,1,242.338,223.977Z" transform="translate(-172.352 -139.414)" fill="#fd3018"/><path d="M197.97,245.548a10.626,10.626,0,0,0-7.441-2.949A10.31,10.31,0,0,0,180,252.988a10.545,10.545,0,0,0,10.53,10.53,10.3,10.3,0,0,0,7.441-3.089,10.519,10.519,0,0,0,3.089-7.441A10.641,10.641,0,0,0,197.97,245.548Z" transform="translate(-137.882 -185.833)" fill="#e1e4fb"/><path d="M235.53,252.988a10.519,10.519,0,0,1-3.089,7.441A10.3,10.3,0,0,1,225,263.518V242.6a10.31,10.31,0,0,1,10.53,10.389Z" transform="translate(-172.352 -185.833)" fill="#c5c9f7"/><path d="M233.152,147.591a3.509,3.509,0,0,1,0-4.963l33.08-33.08a3.509,3.509,0,1,1,4.963,4.963l-33.08,33.08A3.508,3.508,0,0,1,233.152,147.591Z" transform="translate(-177.809 -83.127)" fill="#a8aff1"/><path d="M389.417,31.822h-9.926A3.476,3.476,0,0,1,376,28.331V18.4a3.489,3.489,0,0,1,1.01-2.481L391.9,1.031a3.424,3.424,0,0,1,5.862,2.482v6.549h6.549a3.422,3.422,0,0,1,2.481,5.859L391.9,30.813A3.489,3.489,0,0,1,389.417,31.822Z" transform="translate(-288.02)" fill="#121924"/></g></g></svg>