<svg xmlns="http://www.w3.org/2000/svg" width="32" height="31.999" viewBox="0 0 32 31.999"><defs><style>.a{fill:#f52e2e;}</style></defs><g transform="translate(0 0)"><path class="a" d="M23.866,22H10.533a.533.533,0,1,0,0,1.067H23.866a.533.533,0,1,0,0-1.067Z" transform="translate(-4.667 -10.268)"/><path class="a" d="M10.533,15.068h5.333a.533.533,0,0,0,0-1.067H10.533a.533.533,0,0,0,0,1.067Z" transform="translate(-4.667 -6.534)"/><path class="a" d="M24.4,30.534A.534.534,0,0,0,23.866,30H10.533a.533.533,0,1,0,0,1.067H23.866A.534.534,0,0,0,24.4,30.534Z" transform="translate(-4.667 -14.001)"/><path class="a" d="M20.133,38.534A.534.534,0,0,0,19.6,38H10.533a.533.533,0,1,0,0,1.067H19.6A.534.534,0,0,0,20.133,38.534Z" transform="translate(-4.667 -17.735)"/><path class="a" d="M10.533,46a.533.533,0,1,0,0,1.067H18A.533.533,0,1,0,18,46Z" transform="translate(-4.667 -21.468)"/><path class="a" d="M1.067,1.068H16.533V8.534H24V17.6h1.067V7.78L17.287,0H0V32H16V30.934H1.067ZM17.6,1.822l5.646,5.646H17.6Z" transform="translate(0 -0.001)"/><g transform="translate(0 -0.001)"><path class="a" d="M46.689,46.641l-6.317-10.83a1.194,1.194,0,0,0-2.062,0l-6.317,10.83a1.193,1.193,0,0,0,1.03,1.795H45.658a1.194,1.194,0,0,0,1.031-1.795Zm-.921.665a.119.119,0,0,1-.109.063H33.024a.126.126,0,0,1-.109-.19l6.317-10.83a.121.121,0,0,1,.109-.063.122.122,0,0,1,.11.063l6.317,10.83A.122.122,0,0,1,45.768,47.306Z" transform="translate(-14.853 -16.435)"/><path class="a" d="M45.533,42a.534.534,0,0,0-.533.533V46.8a.533.533,0,1,0,1.067,0V42.534A.533.533,0,0,0,45.533,42Z" transform="translate(-21.001 -19.6)"/><path class="a" d="M45.155,54.161a.533.533,0,0,0,.379.912.551.551,0,0,0,.379-.155.536.536,0,0,0-.757-.757Z" transform="translate(-21.001 -25.206)"/></g></g></svg>