<svg xmlns="http://www.w3.org/2000/svg" width="16" height="15.762" viewBox="0 0 16 15.762"><g transform="translate(0 0)"><g transform="translate(0.987)"><path d="M43.285,9.927a1.043,1.043,0,0,0-.58-1.78l-3.47-.5a.209.209,0,0,1-.157-.114L37.526,4.392a1.047,1.047,0,0,0-1.876,0L34.1,7.529a.209.209,0,0,1-.157.114l-3.47.5a1.043,1.043,0,0,0-.58,1.78L32.4,12.369a.209.209,0,0,1,.06.185L31.869,16a1.045,1.045,0,0,0,1.517,1.1l3.1-1.628a.21.21,0,0,1,.195,0l3.1,1.628a1.041,1.041,0,0,0,1.1-.08A1.036,1.036,0,0,0,41.306,16l-.593-3.448a.209.209,0,0,1,.06-.185Zm-3.4,2.768.593,3.449a.209.209,0,0,1-.3.22l-3.1-1.628a1.048,1.048,0,0,0-.973,0L33,16.363a.209.209,0,0,1-.3-.22l.593-3.448a1.042,1.042,0,0,0-.3-.924L30.475,9.329a.209.209,0,0,1,.116-.356l3.47-.5a1.045,1.045,0,0,0,.787-.571L36.4,4.761a.209.209,0,0,1,.375,0h0L38.327,7.9a1.045,1.045,0,0,0,.787.571l3.47.5a.209.209,0,0,1,.116.356L40.19,11.771A1.042,1.042,0,0,0,39.889,12.695Z" transform="translate(-29.574 -3.81)"/></g><g transform="translate(11.742 0.542)"><path d="M379.195,20.131a.451.451,0,0,0-.629.1l-.478.658a.451.451,0,1,0,.729.53l.478-.658A.451.451,0,0,0,379.195,20.131Z" transform="translate(-378.001 -20.045)"/></g><g transform="translate(2.876 0.539)"><path d="M93.884,20.81l-.478-.658a.451.451,0,0,0-.729.53l.478.658a.451.451,0,1,0,.729-.53Z" transform="translate(-92.59 -19.966)"/></g><g transform="translate(0 9.132)"><path d="M1.653,297.8a.451.451,0,0,0-.568-.289l-.774.252a.451.451,0,1,0,.279.857l.774-.252A.451.451,0,0,0,1.653,297.8Z" transform="translate(0 -297.493)"/></g><g transform="translate(7.55 14.047)"><path d="M242.95,456.786a.451.451,0,0,0-.451.451v.814a.451.451,0,1,0,.9,0v-.814A.451.451,0,0,0,242.95,456.786Z" transform="translate(-242.499 -456.786)"/></g><g transform="translate(14.325 9.133)"><path d="M463.147,297.787l-.774-.251a.451.451,0,0,0-.279.857l.774.252a.451.451,0,0,0,.279-.857Z" transform="translate(-461.783 -297.513)"/></g></g></svg>