<svg xmlns="http://www.w3.org/2000/svg" width="16" height="15.714" viewBox="0 0 16 15.714"><defs><style>.a{fill:#df4c24;}</style></defs><g transform="translate(0 0)"><path class="a" d="M2.777,2.471A1.927,1.927,0,1,0,4.7,4.4,1.929,1.929,0,0,0,2.777,2.471Z" transform="translate(-0.799 -2.471)"/><path class="a" d="M107.3,2.471A1.927,1.927,0,1,0,109.223,4.4,1.929,1.929,0,0,0,107.3,2.471Z" transform="translate(-99.32 -2.471)"/><path class="a" d="M213.506,6.324A1.927,1.927,0,1,0,211.579,4.4,1.929,1.929,0,0,0,213.506,6.324Z" transform="translate(-199.432 -2.471)"/><path class="a" d="M1.927,109.8A1.927,1.927,0,1,0,0,107.876,1.929,1.929,0,0,0,1.927,109.8Z" transform="translate(0 -100.01)"/><path class="a" d="M106.452,109.8a1.927,1.927,0,1,0-1.927-1.927A1.929,1.929,0,0,0,106.452,109.8Z" transform="translate(-98.524 -100.01)"/><path class="a" d="M212.659,109.8a1.927,1.927,0,1,0-1.927-1.927A1.929,1.929,0,0,0,212.659,109.8Z" transform="translate(-198.636 -100.01)"/><path class="a" d="M2.666,209.108a1.927,1.927,0,1,0,1.927,1.927A1.929,1.929,0,0,0,2.666,209.108Z" transform="translate(-0.695 -197.248)"/><path class="a" d="M107.191,209.108a1.927,1.927,0,1,0,1.927,1.927A1.929,1.929,0,0,0,107.191,209.108Z" transform="translate(-99.221 -197.248)"/><path class="a" d="M213.4,209.108a1.927,1.927,0,1,0,1.927,1.927A1.929,1.929,0,0,0,213.4,209.108Z" transform="translate(-199.336 -197.248)"/></g></svg>