<svg xmlns="http://www.w3.org/2000/svg" width="32.069" height="30" viewBox="0 0 32.069 30"><defs><style>.a{fill:#fc9220;}</style></defs><g transform="translate(0 0)"><rect class="a" width="3.103" height="17.069" transform="translate(23.793 6.724)"/><path class="a" d="M26.9,14.029V9.374H0V32.65a3.107,3.107,0,0,0,3.1,3.1h20.69v3.621h3.1V35.753h2.069a3.107,3.107,0,0,0,3.1-3.1V14.029ZM1.034,32.65V10.408H25.862v3.621H14.285L13.251,11.96H5.172V32.65a2.069,2.069,0,1,1-4.138,0Zm24.828,5.69H24.828V34.719a.517.517,0,1,1,1.034,0Zm5.172-5.69a2.071,2.071,0,0,1-2.069,2.069H26.9a1.552,1.552,0,1,0-3.1,0H5.41a3.088,3.088,0,0,0,.8-2.069V12.995h6.4l1.034,2.069H31.034Z" transform="translate(0 -9.374)"/><path class="a" d="M218.728,71.345V70.311h-1.552v.517h-1.552v1.034h1.552v-.517Z" transform="translate(-191.832 -63.587)"/><path class="a" d="M218.728,85.408V84.374h-1.552v.517h-1.552v1.034h1.552v-.517Z" transform="translate(-191.832 -76.098)"/><path class="a" d="M218.728,99.47V98.436h-1.552v.517h-1.552v1.034h1.552V99.47Z" transform="translate(-191.832 -88.608)"/><path class="a" d="M218.728,113.533V112.5h-1.552v.517h-1.552v1.034h1.552v-.517Z" transform="translate(-191.832 -101.12)"/><path class="a" d="M218.728,127.6v-1.034h-1.552v.517h-1.552v1.034h1.552V127.6Z" transform="translate(-191.832 -113.63)"/><path class="a" d="M218.728,141.658v-1.034h-1.552v.517h-1.552v1.034h1.552v-.517Z" transform="translate(-191.832 -126.141)"/><path class="a" d="M218.728,155.72v-1.034h-1.552v.517h-1.552v1.034h1.552v-.517Z" transform="translate(-191.832 -138.652)"/><path class="a" d="M218.728,169.783v-1.034h-1.552v.517h-1.552V170.3h1.552v-.517Z" transform="translate(-191.832 -151.163)"/><path class="a" d="M218.728,183.845v-1.034h-1.552v.517h-1.552v1.034h1.552v-.517Z" transform="translate(-191.832 -163.673)"/><path class="a" d="M218.728,197.908v-1.034h-1.552v.517h-1.552v1.034h1.552v-.517Z" transform="translate(-191.832 -176.184)"/><path class="a" d="M218.728,211.97v-1.034h-1.552v.517h-1.552v1.034h1.552v-.517Z" transform="translate(-191.832 -188.695)"/><path class="a" d="M65.625,75.483H80.108V70.311H65.625Zm1.034-4.138H79.073v3.1H66.659Z" transform="translate(-58.384 -63.587)"/><path class="a" d="M65.625,131.733H80.108v-5.172H65.625Zm1.034-4.138H79.073v3.1H66.659Z" transform="translate(-58.384 -113.63)"/><path class="a" d="M65.625,187.983H80.108v-5.172H65.625Zm1.034-4.138H79.073v3.1H66.659Z" transform="translate(-58.384 -163.673)"/></g></svg>