<svg xmlns="http://www.w3.org/2000/svg" width="124.004" height="101.27" viewBox="0 0 124.004 101.27"><defs><style>.a{fill:#ffdd09;}.b{fill:#fd9808;}.c{fill:#fff;}.d{fill:#1cd759;}</style></defs><g transform="translate(0)"><path class="a" d="M67.356,54.467A59.848,59.848,0,0,0,7.533,114.255a58.427,58.427,0,0,0,13,37.11h93.859a59.71,59.71,0,0,0-47.033-96.9" transform="translate(-5.347 -52.281)"/><path class="b" d="M245.479,54.467H242.2c33.442,1.649,60.108,27.833,60.108,59.789a56.418,56.418,0,0,1-13.77,37.11h6.557a57.573,57.573,0,0,0,13.77-37.11c0-32.987-28.415-59.789-63.386-59.789" transform="translate(-187.046 -52.281)"/><path class="c" d="M70.919,54.467H74.2C40.756,56.116,14.09,82.3,14.09,114.256a56.417,56.417,0,0,0,13.77,37.11H21.3a56.417,56.417,0,0,1-13.77-37.11c0-32.987,28.415-59.789,63.386-59.789" transform="translate(-5.347 -52.281)"/><path class="d" d="M225.488,230.589a8.556,8.556,0,0,0-4.59,9.836,8.47,8.47,0,0,0,6.557,6.339c4.372.874,8.306-1.093,9.836-4.59,2.623-5.246,4.809-10.491,7.869-15.3l6.12-10.273-10.491,6.339a166.348,166.348,0,0,1-15.3,7.65" transform="translate(-167.884 -176.207)"/><path d="M18.672,297.772H1.186a2.186,2.186,0,1,1,0-4.371H18.672a2.186,2.186,0,1,1,0,4.371Z" transform="translate(1 -233.612)"/><path d="M445.339,297.772H427.853a2.186,2.186,0,1,1,0-4.371h17.486a2.186,2.186,0,1,1,0,4.371Z" transform="translate(-323.52 -233.612)"/><path d="M248.653,67.791a2.065,2.065,0,0,1-2.186-2.186V48.12a2.186,2.186,0,1,1,4.371,0V65.606A2.065,2.065,0,0,1,248.653,67.791Z" transform="translate(-186.651 -45.934)"/><path d="M223.138,242.839a10.648,10.648,0,0,1-2.623-.218,10.887,10.887,0,0,1-8.087-8.087,11.3,11.3,0,0,1,5.9-12.459c1.311-.656,2.623-1.311,3.716-1.749,3.716-1.749,7.65-3.716,11.366-5.9l10.491-6.339a2.022,2.022,0,0,1,2.623.437,2.384,2.384,0,0,1,.437,2.623l-6.339,10.492c-2.186,3.716-3.934,7.65-5.9,11.366-.656,1.311-1.311,2.623-1.749,3.716A11.188,11.188,0,0,1,223.138,242.839Zm15.519-26.447-2.841,1.749c-3.716,2.186-7.869,4.153-11.8,6.12-1.311.656-2.623,1.093-3.716,1.749h0a6.485,6.485,0,0,0-3.5,7.431,6.063,6.063,0,0,0,4.809,4.809,6.485,6.485,0,0,0,7.431-3.5,28.463,28.463,0,0,0,1.749-3.716,101.336,101.336,0,0,1,6.12-11.8Zm-19.453,7.65Z" transform="translate(-161.622 -169.693)"/><path d="M79.84,128.959a1.984,1.984,0,0,1-1.53-.656l-6.12-6.12a2.164,2.164,0,0,1,3.06-3.06l6.12,6.12a2.113,2.113,0,0,1,0,3.06A1.986,1.986,0,0,1,79.84,128.959Z" transform="translate(-52.955 -101.01)"/><path d="M399.693,128.959a1.983,1.983,0,0,1-1.53-.656,2.113,2.113,0,0,1,0-3.06l6.12-6.12a2.164,2.164,0,0,1,3.06,3.06l-6.12,6.12A2.363,2.363,0,0,1,399.693,128.959Z" transform="translate(-302.573 -101.01)"/><path d="M29.048,204.991a1.314,1.314,0,0,1-.874-.219l-8.087-3.5a2.153,2.153,0,0,1,1.748-3.934l8.087,3.5a2.169,2.169,0,0,1,1.093,2.841A2.1,2.1,0,0,1,29.048,204.991Z" transform="translate(-13.748 -160.71)"/><path d="M453.155,384.191a1.315,1.315,0,0,1-.874-.218l-8.087-3.5a2.153,2.153,0,0,1,1.748-3.934l8.087,3.5a2.169,2.169,0,0,1,1.093,2.841A2.214,2.214,0,0,1,453.155,384.191Z" transform="translate(-336.364 -297.565)"/><path d="M331.574,78.168a1.315,1.315,0,0,1-.874-.218,2.169,2.169,0,0,1-1.093-2.841l3.5-8.087a2.153,2.153,0,0,1,3.934,1.748l-3.5,8.087A2.213,2.213,0,0,1,331.574,78.168Z" transform="translate(-249.699 -60.682)"/><path d="M159.066,76.46a1.912,1.912,0,0,1-1.967-1.311l-3.279-8.087a2.153,2.153,0,1,1,3.934-1.748l3.279,8.087a2.169,2.169,0,0,1-1.093,2.841A1.653,1.653,0,0,1,159.066,76.46Z" transform="translate(-116.328 -59.412)"/><path d="M446.774,208.185a1.912,1.912,0,0,1-1.967-1.311,2.169,2.169,0,0,1,1.093-2.841l8.087-3.279a2.153,2.153,0,0,1,1.749,3.934l-8.087,3.279C447.211,207.966,446.993,208.185,446.774,208.185Z" transform="translate(-337.633 -163.294)"/><path d="M19.254,381.412a1.912,1.912,0,0,1-1.967-1.312,2.169,2.169,0,0,1,1.093-2.841l8.087-3.279a2.153,2.153,0,0,1,1.748,3.934l-8.087,3.279C19.909,381.412,19.691,381.412,19.254,381.412Z" transform="translate(-12.478 -295.661)"/><path d="M107.917,147.2H14.087a1.88,1.88,0,0,1-1.653-.827A60.491,60.491,0,0,1-1,107.935a62,62,0,1,1,124,0,60.489,60.489,0,0,1-13.434,38.441A1.879,1.879,0,0,1,107.917,147.2Zm-92.8-4.134h91.97A57.9,57.9,0,1,0,3.134,107.935,56.9,56.9,0,0,0,15.121,143.07Z" transform="translate(1 -45.933)"/></g></svg>