<svg xmlns="http://www.w3.org/2000/svg" width="14.914" height="16" viewBox="0 0 14.914 16"><defs><style>.a{fill:#f52e2e;}</style></defs><g transform="translate(0)"><g transform="translate(0 2.128)"><path class="a" d="M306.157,175.108l-1.11-.052-.241,8.382,1.11.052Z" transform="translate(-295.708 -172.337)"/><rect class="a" width="1.11" height="8.393" transform="translate(6.902 2.739)"/><path class="a" d="M159.769,183.431l-.241-8.382-1.11.052.241,8.382Z" transform="translate(-153.954 -172.33)"/><path class="a" d="M17.379,76.867v1.278h1.306l1.036,12.01a.632.632,0,0,0,.624.583h8.961a.632.632,0,0,0,.624-.583l1.036-12.01h1.327V76.867ZM28.732,89.46H20.919l-.976-11.315h9.765Z" transform="translate(-17.379 -76.867)"/></g><g transform="translate(4.718)"><path class="a" d="M161.629,0H158a.926.926,0,0,0-.925.925V2.684h1.11V1.11h3.257V2.684h1.11V.925A.926.926,0,0,0,161.629,0Z" transform="translate(-157.076)"/></g></g></svg>