<svg xmlns="http://www.w3.org/2000/svg" width="12.625" height="16.236" viewBox="0 0 12.625 16.236"><g transform="translate(0)"><path d="M54.679,8.686a6.2,6.2,0,0,1,6.078-6.911V.11a.119.119,0,0,1,.192-.086l3.427,2.519a.105.105,0,0,1,0,.169L60.952,5.229a.119.119,0,0,1-.192-.086V3.481A4.487,4.487,0,0,0,56.7,6.231a4.432,4.432,0,0,0,.631,4.518.856.856,0,1,1-1.345,1.058A6.112,6.112,0,0,1,54.679,8.686Zm9.9-3.2a4.432,4.432,0,0,1,.631,4.518,4.482,4.482,0,0,1-4.059,2.75V11.093a.119.119,0,0,0-.192-.086l-3.427,2.519a.105.105,0,0,0,0,.169l3.424,2.519a.119.119,0,0,0,.192-.086V14.461A6.2,6.2,0,0,0,67.222,7.55a6.08,6.08,0,0,0-1.306-3.12.854.854,0,1,0-1.342,1.058Z" transform="translate(-54.637 0)"/></g></svg>