<svg xmlns="http://www.w3.org/2000/svg" width="16" height="16" viewBox="0 0 16 16"><defs><style>.a{fill:#333;}</style></defs><g transform="translate(0)"><path class="a" d="M15.123.88A2.889,2.889,0,0,0,13,0H3A2.89,2.89,0,0,0,.883.88,2.89,2.89,0,0,0,0,3V13a2.89,2.89,0,0,0,.88,2.12A2.89,2.89,0,0,0,3,16H13a3.005,3.005,0,0,0,3-3V3A2.89,2.89,0,0,0,15.123.88ZM13.336,8.333a.623.623,0,0,1-.406.615A.725.725,0,0,1,12.67,9a.62.62,0,0,1-.469-.2L10.7,7.3,5.139,12.865a.654.654,0,0,1-.938,0L3.139,11.8a.654.654,0,0,1,0-.937L8.7,5.3,7.2,3.8a.6.6,0,0,1-.146-.729.623.623,0,0,1,.615-.406h5a.676.676,0,0,1,.667.667v5Z" transform="translate(-0.003)"/></g></svg>