<svg xmlns="http://www.w3.org/2000/svg" xmlns:xlink="http://www.w3.org/1999/xlink" width="339.256" height="254.457" viewBox="0 0 339.256 254.457"><defs><style>.a{fill:url(#a);}.b{fill:url(#b);}.c{fill:url(#c);}.d{fill:url(#e);}.e{fill:url(#f);}.f{fill:url(#h);}.g{fill:url(#i);}.h{fill:url(#j);}.i{fill:url(#k);}.j{fill:url(#l);}.k{fill:#fff;opacity:0.56;}</style><linearGradient id="a" x1="0.5" y1="1.039" x2="0.5" y2="-0.053" gradientUnits="objectBoundingBox"><stop offset="0" stop-color="#e93e3a"/><stop offset="0.35" stop-color="#ed683c"/><stop offset="0.7" stop-color="#f3903f"/><stop offset="1" stop-color="#fdc70c"/></linearGradient><linearGradient id="b" y1="26.17" y2="-6.59" xlink:href="#a"/><linearGradient id="c" y1="28.17" y2="-4.59" xlink:href="#a"/><linearGradient id="e" y1="23.17" y2="-9.59" xlink:href="#a"/><linearGradient id="f" y1="21.17" y2="-11.59" xlink:href="#a"/><linearGradient id="h" y1="19.17" y2="-13.59" xlink:href="#a"/><linearGradient id="i" y1="17.17" y2="-15.59" xlink:href="#a"/><linearGradient id="j" y1="15.17" y2="-17.59" xlink:href="#a"/><linearGradient id="k" y1="13.17" y2="-19.59" xlink:href="#a"/><linearGradient id="l" y1="11.17" y2="-21.59" xlink:href="#a"/></defs><g transform="translate(0 0)"><g transform="translate(-513.372 -220.271)"><g transform="translate(593 262)"><path class="a" d="M168,2H72a9,9,0,0,0-9,9V65.21L37.9,44.678A3,3,0,0,0,36,44H6a3,3,0,0,0-3,3V167a15.018,15.018,0,0,0,15,15H150a15.018,15.018,0,0,0,15-15V152h3a9,9,0,0,0,9-9V11A9,9,0,0,0,168,2ZM147,8h6v8.1l-.5-.756a3.117,3.117,0,0,0-4.992,0l-.5.756ZM34.929,50,63,72.962V86.216L37.9,65.678A3,3,0,0,0,36,65H9V50ZM9,167V71H34.929L67.1,97.322A3,3,0,0,0,69,98h66v69a14.844,14.844,0,0,0,3.078,9H18a9,9,0,0,1-9-9Zm150,0a9,9,0,1,1-18,0V152h18Zm12-24a3,3,0,0,1-3,3H141V95a3,3,0,0,0-3-3H70.071L69,91.124V11a3,3,0,0,1,3-3h69V26a3,3,0,0,0,5.5,1.665L150,22.4l3.5,5.256A3,3,0,0,0,159,26V8h9a3,3,0,0,1,3,3Z" transform="translate(0)"/><path class="b" d="M29,12H64.948v5.991H29Z" transform="translate(52.029 20.001)"/><path class="c" d="M29,8H40.983v5.991H29Z" transform="translate(52.008 11.974)"/><path class="c" d="M35,8H52.974v5.991H35Z" transform="translate(64.016 11.974)"/><path class="d" d="M29,18h77.888v5.991H29Z" transform="translate(52.138 32.002)"/><path class="e" d="M29,22H58.957v5.991H29Z" transform="translate(52.023 40.003)"/><path class="e" d="M41,22H82.94v5.991H41Z" transform="translate(76.086 40.003)"/><path class="f" d="M29,26h77.888v5.991H29Z" transform="translate(52.138 48.004)"/><g transform="translate(147.043 86.037)"><path class="g" d="M51,30H62.983v5.991H51Z" transform="translate(-51 -30)"/><path class="h" d="M51,34H62.983v5.991H51Z" transform="translate(-51 -22.017)"/><path class="i" d="M51,38H62.983v5.991H51Z" transform="translate(-51 -14.034)"/><path class="j" d="M51,42H62.983v5.991H51Z" transform="translate(-51 -6.052)"/></g></g></g><rect class="k" width="251" height="36" rx="18" transform="matrix(0.819, -0.574, 0.574, 0.819, 0, 143.968)"/><rect class="k" width="251" height="36" rx="18" transform="matrix(0.819, -0.574, 0.574, 0.819, 0, 224.968)"/><rect class="k" width="251" height="36" rx="18" transform="matrix(0.819, -0.574, 0.574, 0.819, 113, 215.968)"/></g></svg>