<svg xmlns="http://www.w3.org/2000/svg" width="15.025" height="13.217" viewBox="0 0 15.025 13.217"><defs><style>.a{fill:#f52e2e;}</style></defs><g transform="translate(0 0)"><g transform="translate(-16.975 -18.784)"><path class="a" d="M46.689,46.641l-6.317-10.83a1.194,1.194,0,0,0-2.062,0l-6.317,10.83a1.193,1.193,0,0,0,1.03,1.795H45.658a1.194,1.194,0,0,0,1.031-1.795Zm-.921.665a.119.119,0,0,1-.109.063H33.024a.126.126,0,0,1-.109-.19l6.317-10.83a.121.121,0,0,1,.109-.063.122.122,0,0,1,.11.063l6.317,10.83A.122.122,0,0,1,45.768,47.306Z" transform="translate(-14.853 -16.435)"/><path class="a" d="M45.533,42a.534.534,0,0,0-.533.533V46.8a.533.533,0,1,0,1.067,0V42.534A.533.533,0,0,0,45.533,42Z" transform="translate(-21.001 -19.6)"/></g><path class="a" d="M45.155,54.161a.533.533,0,0,0,.379.912.551.551,0,0,0,.379-.155.536.536,0,0,0-.757-.757Z" transform="translate(-37.975 -43.99)"/></g></svg>