<svg xmlns="http://www.w3.org/2000/svg" width="29" height="29.492" viewBox="0 0 29 29.492"><g transform="translate(0)"><path d="M26.119,0H6.458A2.461,2.461,0,0,0,4,2.458V18.187a2.458,2.458,0,0,0,1.844,2.38l.246-.952a1.475,1.475,0,0,1-1.106-1.428V2.458A1.475,1.475,0,0,1,6.458.983H26.119a1.475,1.475,0,0,1,1.475,1.475v.492h.983V2.458A2.461,2.461,0,0,0,26.119,0Z" transform="translate(-4)"/><g transform="translate(1.966 1.966)"><rect width="0.983" height="0.983"/></g><g transform="translate(3.932 1.966)"><rect width="0.983" height="0.983"/></g><g transform="translate(5.898 1.966)"><rect width="0.983" height="0.983"/></g><g transform="translate(4.915 7.864)"><path d="M107.941,147.314l-4.662-4.662a6.8,6.8,0,0,0,.584-1.38h.782v-.983h-.57a6.623,6.623,0,0,0-.413-3.522v-4.834h-.983v3.13a6.918,6.918,0,0,0-.983-1.02v-4.076h-.983v3.389a6.835,6.835,0,0,0-.983-.469V128h-.983v4.587a6.805,6.805,0,0,0-.983-.138v-3.466H96.78v3.466a6.805,6.805,0,0,0-.983.138v-1.638h-.983v1.936a6.84,6.84,0,0,0-.983.469v-2.9h-.983v3.584a6.917,6.917,0,0,0-.983,1.02v-3.622h-.983v5.325a6.623,6.623,0,0,0-.413,3.522H84v.983h6.68a6.867,6.867,0,0,0,10.54,3.661l4.551,4.551a.492.492,0,0,0,.7,0l1.475-1.475A.492.492,0,0,0,107.941,147.314Zm-10.67-2.11a5.9,5.9,0,1,1,5.9-5.9A5.9,5.9,0,0,1,97.271,145.2Zm8.847,3.237-4.135-4.135a6.964,6.964,0,0,0,.74-.819l4.175,4.175Z" transform="translate(-84 -128)"/></g><g transform="translate(13.271 14.254)"><path d="M224.915,232a4.915,4.915,0,1,0,4.915,4.915A4.915,4.915,0,0,0,224.915,232Zm0,8.847a3.932,3.932,0,0,1-3.4-1.966h6.8A3.932,3.932,0,0,1,224.915,240.847Zm-3.8-2.949a3.9,3.9,0,0,1,1.345-4.048v3.065h.983v-3.643a3.915,3.915,0,0,1,.983-.256v3.9h.983v-3.9a3.915,3.915,0,0,1,.983.256v3.643h.983v-3.065a3.9,3.9,0,0,1,1.345,4.048Z" transform="translate(-220 -232)"/></g><g transform="translate(2.949 3.932)"><path d="M74.119,64H54.458A2.461,2.461,0,0,0,52,66.458V82.187a2.461,2.461,0,0,0,2.458,2.458h6.39v-.983h-6.39a1.475,1.475,0,0,1-1.475-1.475V66.458a1.475,1.475,0,0,1,1.475-1.475H74.119a1.475,1.475,0,0,1,1.475,1.475V82.187a1.475,1.475,0,0,1-.369.975l.737.65a2.455,2.455,0,0,0,.614-1.625V66.458A2.461,2.461,0,0,0,74.119,64Z" transform="translate(-52 -64)"/></g><g transform="translate(4.915 5.898)"><rect width="0.983" height="0.983"/></g><g transform="translate(6.881 5.898)"><rect width="0.983" height="0.983"/></g><g transform="translate(8.848 5.898)"><rect width="0.983" height="0.983"/></g><g transform="translate(5.898 16.22)"><rect width="0.983" height="2.949"/></g><g transform="translate(7.864 13.271)"><rect width="0.983" height="5.898"/></g><g transform="translate(9.831 14.746)"><rect width="0.983" height="4.424"/></g></g></svg>