<svg xmlns="http://www.w3.org/2000/svg" xmlns:xlink="http://www.w3.org/1999/xlink" width="120" height="120" viewBox="0 0 120 120"><defs><clipPath id="b"><rect width="120" height="120"/></clipPath></defs><g id="a" clip-path="url(#b)"><rect width="120" height="120" fill="#fff"/><circle cx="60" cy="60" r="60" fill="#8799b3"/><path d="M207.585,147.978a60.278,60.278,0,0,0-.361-6.558L181,115.192,115.191,181l26.228,26.228a60.281,60.281,0,0,0,6.558.361A59.608,59.608,0,0,0,207.585,147.978Z" transform="translate(-88.37 -88.37)" fill="#5b6d7f"/><g transform="translate(24.914 24.914)"><path d="M170.289,176.387H113.1a6.105,6.105,0,0,1-6.1-6.1V113.1a6.105,6.105,0,0,1,6.1-6.1h57.19a6.105,6.105,0,0,1,6.1,6.1v57.19A6.105,6.105,0,0,1,170.289,176.387Z" transform="translate(-107 -107)" fill="#466288"/><path d="M284.6,107H256v69.387h28.6a6.105,6.105,0,0,0,6.1-6.1V113.1A6.105,6.105,0,0,0,284.6,107Z" transform="translate(-221.306 -107)" fill="#243145"/><rect width="28.076" height="4.066" transform="translate(35.778 39.301)" fill="#8799b3"/><rect width="8.944" height="4.066" transform="translate(52.718 52.854)" fill="#8799b3"/><rect width="10.164" height="4.066" transform="translate(35.778 52.854)" fill="#8799b3"/><path d="M330.683,272.081a5.421,5.421,0,1,1,5.421-5.421A5.427,5.427,0,0,1,330.683,272.081Z" transform="translate(-283.441 -225.325)" fill="#176bb4"/><path d="M176.387,124.618H107V113.1a6.105,6.105,0,0,1,6.1-6.1h57.19a6.105,6.105,0,0,1,6.1,6.1Z" transform="translate(-107 -107)" fill="#243145"/><circle cx="2.033" cy="2.033" r="2.033" transform="translate(21.684 6.776)" fill="#bec8d6"/><circle cx="2.033" cy="2.033" r="2.033" transform="translate(14.908 6.776)" fill="#ff728b"/><circle cx="2.033" cy="2.033" r="2.033" transform="translate(8.131 6.776)" fill="#e4187a"/><rect width="26.076" height="4.066" transform="translate(35.587 25.749)" fill="#8799b3"/><path d="M301,330.284a5.421,5.421,0,1,1,5.421-5.421A5.427,5.427,0,0,1,301,330.284Z" transform="translate(-250.669 -269.976)" fill="#b17d36"/><path d="M284.6,107H256v17.618h34.694V113.1A6.105,6.105,0,0,0,284.6,107Z" transform="translate(-221.306 -107)" fill="#121924"/><path d="M266.078,213.878a5.421,5.421,0,1,1,5.421-5.421A5.427,5.427,0,0,1,266.078,213.878Z" transform="translate(-204.879 -180.675)" fill="#267617"/></g><g transform="translate(12 38)"><path d="M27.707,11.293l4.586-4.586a2.414,2.414,0,0,1,3.414,0l.586.586a2.414,2.414,0,0,1,0,3.414l-4.586,4.586a2.414,2.414,0,0,1-3.414,0l-.586-.586a2.414,2.414,0,0,1,0-3.414Z" transform="translate(17.162 -19.401) rotate(45)" fill="#fff"/><path d="M20,19H44v2H20Z" fill="#8799b3"/><path d="M20,23H44v2H20Z" fill="#8799b3"/><path d="M20,27H44v2H20Z" fill="#8799b3"/><path d="M20,31H44v2H20Z" fill="#8799b3"/><path d="M23,49H20V47h3a1,1,0,0,0,0-2,3,3,0,0,1,0-6h3v2H23a1,1,0,0,0,0,2,3,3,0,0,1,0,6Z" fill="#8799b3"/><path d="M22,37h2v3H22Z" fill="#8799b3"/><path d="M22,48h2v3H22Z" fill="#8799b3"/><path d="M32,49H29V47h3a1,1,0,0,0,0-2,3,3,0,0,1,0-6h3v2H32a1,1,0,0,0,0,2,3,3,0,0,1,0,6Z" fill="#8799b3"/><path d="M31,37h2v3H31Z" fill="#8799b3"/><path d="M31,48h2v3H31Z" fill="#8799b3"/><path d="M41,49H38V47h3a1,1,0,0,0,0-2,3,3,0,0,1,0-6h3v2H41a1,1,0,0,0,0,2,3,3,0,0,1,0,6Z" fill="#8799b3"/><path d="M40,37h2v3H40Z" fill="#8799b3"/><path d="M40,48h2v3H40Z" fill="#8799b3"/><path d="M30,17a3.393,3.393,0,0,1-2.414-1L27,15.414a3.414,3.414,0,0,1,0-4.828L31.586,6a3.5,3.5,0,0,1,4.828,0L37,6.586a3.415,3.415,0,0,1,0,4.829L32.414,16A3.393,3.393,0,0,1,30,17ZM34,7a1.4,1.4,0,0,0-1,.415L28.414,12a1.415,1.415,0,0,0,0,2l.586.586a1.448,1.448,0,0,0,2,0L35.586,10a1.415,1.415,0,0,0,0-2L35,7.414A1.406,1.406,0,0,0,34,7Z" transform="translate(17.162 -19.401) rotate(45)"/><circle cx="2.033" cy="2.033" r="2.033" transform="translate(29.598 10.69)" fill="#3597ec"/></g></g></svg>