<svg xmlns="http://www.w3.org/2000/svg" xmlns:xlink="http://www.w3.org/1999/xlink" width="190" height="32.556" viewBox="0 0 188 32.556"><defs><style>.a,.i{fill:none;}.b{clip-path:url(#a);}.c{fill:#fc9220;}.d,.g{fill:#e56924;}.e{fill:#df4c24;}.f{fill:#d34125;}.g{font-size:16px;font-family:NotoSans-Bold, Noto Sans;font-weight:700;}.h{fill:#999;font-size:8px;font-family:NotoSans, Noto Sans;}.i{stroke:#ccc;}</style><clipPath id="a"><rect class="a" width="190" height="32.556"/></clipPath></defs><g class="b"><g transform="translate(-10 -12)"><g transform="translate(10 12)"><g transform="translate(0)"><path class="a" d="M568.981,264.089h-1.455a13.93,13.93,0,0,0,.374,3.2l1.415-.333A12.493,12.493,0,0,1,568.981,264.089Z" transform="translate(-563.001 -247.972)"/><g transform="translate(0 0)"><path class="c" d="M639.526,233.777a8.5,8.5,0,0,1-1.162,4.3l2.63,1.528a11.513,11.513,0,0,0,1.557-5.2l-1.385-.1q.013-.261.013-.526a10.2,10.2,0,0,0-4.117-8.188l.833-1.111a11.61,11.61,0,0,0-2.3-1.337l-1.22,2.786A8.567,8.567,0,0,1,639.526,233.777Z" transform="translate(-612.483 -217.66)"/><path class="c" d="M581.268,221.993q-.19.143-.374.294l-.061.05q-.186.155-.366.317l-.073.066c-.12.11-.239.223-.354.338L580,223.1q-.165.166-.324.34l-.049.053q-.163.18-.318.367l-.063.077q-.154.188-.3.383l-.038.052q-.139.188-.272.382l-.036.051q-.137.2-.264.412l-.052.085q-.126.209-.243.423l-.035.065q-.112.208-.216.422l-.023.047c-.072.149-.139.3-.2.452l-.039.091q-.095.226-.181.458l-.028.077q-.083.228-.156.461l-.012.036c-.05.161-.1.324-.139.488l-.025.1q-.062.241-.112.486c-.006.029-.012.058-.017.087-.033.165-.063.331-.089.5,0,.007,0,.015,0,.022-.026.171-.047.344-.066.517,0,.033-.007.065-.01.1q-.025.253-.039.51c0,.032,0,.064,0,.1-.008.178-.014.357-.014.538h1.687a9.9,9.9,0,0,1,4-7.955l.01-.008a9.86,9.86,0,0,1,4.741-1.882l-.193-1.673a11.534,11.534,0,0,0-5.579,2.22Z" transform="translate(-569.739 -215.149)"/><path class="c" d="M557.574,206.924q-.4.3-.777.611a18.467,18.467,0,0,0-6.655,13.037q-.038.59-.038,1.19h2.263q0-.526.033-1.044a16.206,16.206,0,0,1,5.84-11.441q.334-.277.682-.536l.017-.012-1.347-1.818Z" transform="translate(-550.104 -205.645)"/><path class="c" d="M641.674,279.883c.025-.026.052-.051.077-.077l.826.782A8.6,8.6,0,0,0,643.77,279l-.984-.571A7.465,7.465,0,0,1,641.674,279.883Z" transform="translate(-617.889 -258.586)"/><path class="c" d="M581.121,277.324,584,274.292l.01.009a7.415,7.415,0,0,1-2.112-3.672l-4.07.958A11.6,11.6,0,0,0,581.121,277.324Z" transform="translate(-570.624 -252.813)"/><path class="c" d="M586.221,204.025l-1.66,2.215c.031.023.06.048.09.07l-.091-.069-.065-.049q-.222-.164-.449-.32l-.078-.055c-.177-.119-.358-.235-.54-.347l-.151-.09q-.209-.125-.422-.243l-.17-.094q-.259-.139-.524-.269l-.054-.027c-.165-.079-.333-.154-.5-.227a14.747,14.747,0,0,0-7.655-1.135l-.155-1.347a16.14,16.14,0,0,0-7.775,3.083l.805,1.087a14.859,14.859,0,0,0-6.025,11.946h0a14.851,14.851,0,0,0,.4,3.407l-1.529.36a16.438,16.438,0,0,0,30.21,4.5l0-.008-1.358-.789a14.766,14.766,0,0,0,1.992-6.6l2.764.2q.032-.532.032-1.072A17.627,17.627,0,0,0,586.221,204.025Zm1.94,14.827a12.421,12.421,0,0,1-1.678,5.587l1.257.73a14.034,14.034,0,0,1-1.943,2.589l0,0c-.041.043-.085.084-.126.127q-.124.128-.252.253t-.235.225q-.131.122-.264.24t-.246.214q-.136.115-.276.227c-.085.068-.17.136-.256.2s-.191.143-.288.214-.176.127-.265.189-.2.134-.3.2-.182.118-.274.176-.206.125-.31.186-.187.109-.282.162-.213.115-.321.171-.192.1-.289.148-.22.1-.331.156-.2.091-.3.134-.228.094-.342.14-.2.081-.3.118c-.117.044-.236.084-.354.125-.1.035-.2.071-.3.1-.121.038-.244.073-.366.108-.1.029-.2.06-.306.087-.126.033-.254.062-.381.091-.1.024-.2.049-.3.07-.132.028-.266.05-.4.074-.1.018-.2.038-.3.054-.141.022-.283.038-.425.056-.095.012-.189.026-.285.036-.158.016-.318.027-.478.038-.081.006-.161.014-.242.018q-.363.019-.73.019-.349,0-.695-.017c-.074,0-.147-.011-.221-.016-.155-.01-.311-.019-.465-.035-.092-.009-.182-.023-.273-.033-.135-.016-.27-.03-.4-.05-.1-.014-.191-.033-.286-.049-.127-.022-.254-.041-.38-.066-.1-.019-.193-.043-.29-.064-.122-.027-.244-.052-.365-.082-.1-.024-.2-.054-.293-.08-.117-.032-.234-.062-.35-.1-.1-.03-.2-.064-.293-.1-.113-.037-.226-.071-.337-.111s-.191-.073-.287-.109-.221-.082-.33-.126-.188-.082-.281-.123-.215-.091-.321-.141-.184-.09-.275-.136-.209-.1-.312-.155-.18-.1-.27-.149-.2-.11-.3-.168-.176-.108-.265-.163-.195-.118-.29-.179-.171-.117-.257-.175-.188-.126-.28-.192-.166-.124-.249-.187-.182-.134-.27-.2-.159-.132-.239-.2-.175-.143-.261-.217-.154-.139-.23-.208-.155-.138-.231-.209l-.018-.018,0,0,1-1.057a12.508,12.508,0,0,1-3.556-6.188l-1.415.333a13.934,13.934,0,0,1-.374-3.2h0a13.95,13.95,0,0,1,5.657-11.216l.865,1.169a12.442,12.442,0,0,1,5.989-2.374l-.166-1.445a13.848,13.848,0,0,1,7.186,1.064l-.583,1.332a12.534,12.534,0,0,1,2.486,1.443l.872-1.163a13.951,13.951,0,0,1,5.62,11.19c0,.269-.01.536-.025.8Z" transform="translate(-557.184 -202.041)"/><path class="c" d="M617.143,216.843a11.53,11.53,0,0,1,4.62.962l.365-.833a12.434,12.434,0,0,0-4.984-1.039,12.583,12.583,0,0,0-1.452.087l.1.9A11.609,11.609,0,0,1,617.143,216.843Z" transform="translate(-598.655 -212.325)"/><path class="c" d="M574.036,264.088h-.91a12.493,12.493,0,0,0,.335,2.866l.885-.209A11.572,11.572,0,0,1,574.036,264.088Z" transform="translate(-567.146 -247.971)"/></g><g transform="translate(2.263 3.083)"><path class="d" d="M566.2,215l-.805-1.087-.017.012q-.348.26-.682.536a16.206,16.206,0,0,0-5.84,11.441q-.033.518-.033,1.044h1.352A14.859,14.859,0,0,1,566.2,215Z" transform="translate(-558.818 -213.911)"/><path class="d" d="M574.048,222.078l-.865-1.169a13.95,13.95,0,0,0-5.657,11.216h1.455A12.5,12.5,0,0,1,574.048,222.078Z" transform="translate(-565.264 -219.091)"/><path class="d" d="M657.25,291.59A14.031,14.031,0,0,0,659.193,289l-1.257-.73a12.561,12.561,0,0,1-1.741,2.32Z" transform="translate(-630.901 -268.956)"/><path class="d" d="M645.148,282.217l2.209,2.091a11.667,11.667,0,0,0,1.615-2.152l-2.63-1.528A8.6,8.6,0,0,1,645.148,282.217Z" transform="translate(-622.724 -263.298)"/><path class="d" d="M645.568,228.29l-.833,1.111a10.2,10.2,0,0,1,4.117,8.188q0,.265-.013.526l1.385.1c.011-.208.018-.417.018-.628A11.588,11.588,0,0,0,645.568,228.29Z" transform="translate(-622.418 -224.555)"/><path class="d" d="M650.914,221.009l-.872,1.163A12.5,12.5,0,0,1,655.08,232.2c0,.233-.008.465-.02.695l1.45.107c.015-.265.025-.532.025-.8A13.951,13.951,0,0,0,650.914,221.009Z" transform="translate(-626.347 -219.165)"/><path class="d" d="M639.432,219.933l-.365.833a11.609,11.609,0,0,1,2.305,1.337l.546-.728A12.535,12.535,0,0,0,639.432,219.933Z" transform="translate(-618.222 -218.369)"/><path class="d" d="M659.871,271.7l.786.457a12.421,12.421,0,0,0,1.678-5.587l-.907-.067A11.513,11.513,0,0,1,659.871,271.7Z" transform="translate(-633.623 -252.844)"/><path class="d" d="M593.164,219.381l-.015.011a11.533,11.533,0,0,1,5.579-2.22l-.1-.9a12.442,12.442,0,0,0-5.989,2.374l.541.73Z" transform="translate(-583.851 -215.656)"/><path class="d" d="M575.3,274.317l-.885.209a12.507,12.507,0,0,0,3.556,6.188l.626-.659A11.6,11.6,0,0,1,575.3,274.317Z" transform="translate(-570.364 -258.627)"/><path class="d" d="M584.25,300c.081.077.165.151.248.227s.152.14.23.208.174.145.26.217.158.133.239.2.18.136.27.2.164.126.249.187.186.128.28.192.17.118.257.175.193.12.29.179.175.11.265.163.2.112.3.168.179.1.27.149.208.1.312.155.182.092.275.136.214.094.321.141.187.084.281.123.22.084.33.126.19.075.287.109.225.074.337.111.194.066.293.1c.116.035.233.064.35.1.1.026.195.056.293.08.121.03.243.055.365.082.1.021.193.045.29.064.126.025.253.044.38.066.1.016.19.035.286.049.133.02.269.034.4.05.091.011.181.025.273.034.154.015.309.024.465.035.074,0,.147.012.221.016q.345.017.695.017V302.4h0a12.46,12.46,0,0,1-8.617-3.455l-1,1.057Z" transform="translate(-577.642 -276.856)"/><path class="d" d="M603.8,283.814l-.1.1q-.113.111-.23.217l-.089.081c-.108.095-.218.187-.332.275l-.053.04q-.146.111-.3.216l-.115.077q-.129.085-.261.165l-.118.071q-.165.1-.334.182l-.049.026c-.129.065-.261.125-.395.183l-.117.048q-.147.06-.3.115l-.137.048q-.158.053-.318.1l-.108.032q-.213.058-.431.1l-.094.017c-.116.023-.233.043-.351.06l-.146.019c-.107.013-.216.024-.324.033l-.139.011c-.153.009-.306.016-.461.016-.117,0-.234,0-.35-.009l-.115-.008c-.077,0-.155-.01-.231-.017l-.133-.014c-.07-.008-.14-.016-.21-.026l-.138-.021-.2-.035-.137-.027c-.067-.014-.133-.029-.2-.044l-.131-.032c-.069-.018-.136-.037-.2-.056l-.12-.035c-.078-.024-.155-.05-.232-.076l-.085-.029q-.157-.056-.31-.119l-.065-.028c-.08-.034-.16-.068-.239-.1l-.106-.051c-.064-.031-.128-.062-.191-.095l-.115-.062c-.059-.032-.117-.064-.175-.1L594.7,285l-.167-.1-.113-.073c-.056-.037-.11-.075-.165-.113l-.106-.075c-.058-.042-.114-.085-.17-.129l-.09-.069c-.072-.057-.142-.116-.211-.175l-.04-.034q-.123-.107-.242-.22l-.01-.009-2.876,3.032a11.554,11.554,0,0,0,7.991,3.2h0v-3.044a8.529,8.529,0,0,0,6.2-2.669l-.826-.782C603.855,283.763,603.829,283.788,603.8,283.814Z" transform="translate(-582.282 -265.6)"/></g><g transform="translate(5.98 6.07)"><path class="e" d="M577.086,227.625q.159-.173.324-.34l.038-.038c.116-.115.234-.228.354-.338l.073-.066q.18-.162.366-.317l.061-.05q.184-.15.374-.294l.033-.025.015-.011.012-.009-.541-.73a12.5,12.5,0,0,0-5.067,10.047h.91c0-.18.005-.359.014-.538,0-.032,0-.064,0-.1q.014-.256.039-.51c0-.033.007-.065.01-.1.019-.174.04-.346.066-.517,0-.008,0-.015,0-.022.026-.168.056-.334.089-.5.006-.029.011-.058.017-.087q.051-.245.112-.486l.025-.1c.043-.164.089-.327.139-.488l.012-.036c.049-.155.1-.309.156-.461l.028-.077q.085-.231.181-.458l.039-.091c.065-.152.133-.3.2-.452l.023-.047q.1-.214.216-.422l.035-.065q.117-.215.243-.423l.052-.085c.086-.139.173-.277.264-.412l.036-.051q.132-.194.272-.382l.038-.052c.1-.13.2-.257.3-.383l.063-.077q.155-.187.318-.367Z" transform="translate(-573.126 -225.408)"/><path class="e" d="M655.267,286.511a11.668,11.668,0,0,1-1.615,2.152l.66.625a12.563,12.563,0,0,0,1.741-2.32Z" transform="translate(-632.735 -270.64)"/><path class="e" d="M648.487,225.488l-.546.728a11.588,11.588,0,0,1,4.674,9.3c0,.211-.007.42-.018.628l.907.067c.013-.23.02-.461.02-.695A12.5,12.5,0,0,0,648.487,225.488Z" transform="translate(-628.508 -225.467)"/><path class="e" d="M621.282,301.11v1.455q.367,0,.73-.019c.081,0,.161-.013.242-.018.16-.011.32-.021.478-.038.1-.01.19-.024.285-.036.142-.018.284-.034.425-.056.1-.016.2-.036.3-.053.133-.024.266-.046.4-.074.1-.021.2-.047.3-.07.127-.03.255-.058.381-.091.1-.027.2-.058.306-.087.122-.035.245-.07.366-.108.1-.032.2-.068.3-.1.118-.041.237-.081.354-.125.1-.038.2-.078.3-.118s.229-.091.342-.14.2-.089.3-.134.222-.1.331-.156.193-.1.289-.148.215-.112.321-.171.188-.107.282-.162.208-.122.31-.186.183-.116.274-.176.2-.132.3-.2.177-.125.265-.189.193-.141.288-.214.171-.134.256-.2.185-.15.276-.227.165-.141.246-.214.177-.159.264-.24.158-.149.235-.225.169-.168.252-.253c.042-.043.083-.086.124-.13l-1.056-1A12.471,12.471,0,0,1,621.282,301.11Z" transform="translate(-608.774 -278.554)"/><path class="e" d="M629.689,288.838l-2.209-2.091a8.528,8.528,0,0,1-6.2,2.669v3.044A11.564,11.564,0,0,0,629.689,288.838Z" transform="translate(-608.773 -270.814)"/><path class="e" d="M596.723,299.609a11.554,11.554,0,0,1-7.991-3.2l-.626.66a12.46,12.46,0,0,0,8.617,3.455h0v-.91Z" transform="translate(-584.215 -277.963)"/></g><path class="f" d="M621.282,298.419v.91a12.471,12.471,0,0,0,9.068-3.907l-.66-.625A11.564,11.564,0,0,1,621.282,298.419Z" transform="translate(-602.794 -270.704)"/></g></g><text class="g" transform="translate(50.782 20)"><tspan x="0" y="17">TAPP</tspan></text></g><text class="h" transform="translate(97 14)"><tspan x="0" y="0">TOUCH-LESS ACCOUNTS</tspan><tspan x="0" y="11">PAYABLE PLATFORM</tspan></text><path class="i" d="M0,8V24" transform="translate(89.5 0.5)"/></g></svg>